<svg width="51" height="49" viewBox="0 0 51 49" fill="none" xmlns="http://www.w3.org/2000/svg">
<path fill-rule="evenodd" clip-rule="evenodd" d="M44.625 3.0625H6.375C5.52962 3.0625 4.71887 3.38516 4.1211 3.95949C3.52332 4.53382 3.1875 5.31277 3.1875 6.125V41.6071L9.5625 35.4821C10.7578 34.3334 12.379 33.6878 14.0696 33.6875H44.625C45.4704 33.6875 46.2811 33.3648 46.8789 32.7905C47.4767 32.2162 47.8125 31.4372 47.8125 30.625V6.125C47.8125 5.31277 47.4767 4.53382 46.8789 3.95949C46.2811 3.38516 45.4704 3.0625 44.625 3.0625ZM6.375 0C4.68424 0 3.06274 0.645311 1.86719 1.79397C0.67165 2.94263 0 4.50055 0 6.125L0 45.3036C6.69849e-05 45.6066 0.0936889 45.9027 0.269016 46.1546C0.444344 46.4064 0.693495 46.6026 0.984935 46.7184C1.27638 46.8341 1.597 46.8642 1.90624 46.8048C2.21548 46.7454 2.49942 46.5991 2.72212 46.3846L11.8161 37.6473C12.4137 37.0729 13.2243 36.7502 14.0696 36.75H44.625C46.3158 36.75 47.9373 36.1047 49.1328 34.956C50.3284 33.8074 51 32.2495 51 30.625V6.125C51 4.50055 50.3284 2.94263 49.1328 1.79397C47.9373 0.645311 46.3158 0 44.625 0L6.375 0Z" fill="white"/>
<path d="M15.9375 18.375C15.9375 19.1872 15.6017 19.9662 15.0039 20.5405C14.4061 21.1148 13.5954 21.4375 12.75 21.4375C11.9046 21.4375 11.0939 21.1148 10.4961 20.5405C9.89832 19.9662 9.5625 19.1872 9.5625 18.375C9.5625 17.5628 9.89832 16.7838 10.4961 16.2095C11.0939 15.6352 11.9046 15.3125 12.75 15.3125C13.5954 15.3125 14.4061 15.6352 15.0039 16.2095C15.6017 16.7838 15.9375 17.5628 15.9375 18.375ZM28.6875 18.375C28.6875 19.1872 28.3517 19.9662 27.7539 20.5405C27.1561 21.1148 26.3454 21.4375 25.5 21.4375C24.6546 21.4375 23.8439 21.1148 23.2461 20.5405C22.6483 19.9662 22.3125 19.1872 22.3125 18.375C22.3125 17.5628 22.6483 16.7838 23.2461 16.2095C23.8439 15.6352 24.6546 15.3125 25.5 15.3125C26.3454 15.3125 27.1561 15.6352 27.7539 16.2095C28.3517 16.7838 28.6875 17.5628 28.6875 18.375ZM41.4375 18.375C41.4375 19.1872 41.1017 19.9662 40.5039 20.5405C39.9061 21.1148 39.0954 21.4375 38.25 21.4375C37.4046 21.4375 36.5939 21.1148 35.9961 20.5405C35.3983 19.9662 35.0625 19.1872 35.0625 18.375C35.0625 17.5628 35.3983 16.7838 35.9961 16.2095C36.5939 15.6352 37.4046 15.3125 38.25 15.3125C39.0954 15.3125 39.9061 15.6352 40.5039 16.2095C41.1017 16.7838 41.4375 17.5628 41.4375 18.375Z" fill="white"/>
</svg>
