<svg width="52" height="49" viewBox="0 0 52 49" fill="none" xmlns="http://www.w3.org/2000/svg">
<path d="M25.6801 31.6299C25.7181 31.6756 25.7666 31.7126 25.8221 31.7381C25.8775 31.7635 25.9383 31.7768 26 31.7768C26.0617 31.7768 26.1225 31.7635 26.1779 31.7381C26.2334 31.7126 26.2819 31.6756 26.3199 31.6299L32.0074 24.8493C32.2156 24.6005 32.0277 24.232 31.6875 24.232H27.9246V8.03906C27.9246 7.82852 27.7418 7.65625 27.5184 7.65625H24.4715C24.248 7.65625 24.0652 7.82852 24.0652 8.03906V24.2272H20.3125C19.9723 24.2272 19.7844 24.5957 19.9926 24.8445L25.6801 31.6299ZM44.5859 29.9551H41.5391C41.3156 29.9551 41.1328 30.1273 41.1328 30.3379V37.707H10.8672V30.3379C10.8672 30.1273 10.6844 29.9551 10.4609 29.9551H7.41406C7.19062 29.9551 7.00781 30.1273 7.00781 30.3379V39.8125C7.00781 40.6595 7.73398 41.3438 8.63281 41.3438H43.3672C44.266 41.3438 44.9922 40.6595 44.9922 39.8125V30.3379C44.9922 30.1273 44.8094 29.9551 44.5859 29.9551Z" fill="white"/>
</svg>
