<svg width="51" height="48" viewBox="0 0 51 48" fill="none" xmlns="http://www.w3.org/2000/svg">
<path d="M25.33 3.83997C13.6127 3.83997 4.07996 12.812 4.07996 23.84C4.07996 34.868 13.6127 43.84 25.33 43.84C37.0472 43.84 46.58 34.868 46.58 23.84C46.58 12.812 37.0472 3.83997 25.33 3.83997ZM25.33 39.84C15.9566 39.84 8.32996 32.662 8.32996 23.84C8.32996 15.018 15.9566 7.83997 25.33 7.83997C34.7033 7.83997 42.33 15.018 42.33 23.84C42.33 32.662 34.7033 39.84 25.33 39.84Z" fill="white"/>
<path d="M18.0625 24C19.8229 24 21.25 22.6569 21.25 21C21.25 19.3431 19.8229 18 18.0625 18C16.3021 18 14.875 19.3431 14.875 21C14.875 22.6569 16.3021 24 18.0625 24Z" fill="white"/>
<path d="M32.9226 23.972C34.6748 23.972 36.0952 22.6351 36.0952 20.986C36.0952 19.3369 34.6748 18 32.9226 18C31.1704 18 29.75 19.3369 29.75 20.986C29.75 22.6351 31.1704 23.972 32.9226 23.972Z" fill="white"/>
<path d="M25.5 36C34 36 36.125 28 36.125 28H14.875C14.875 28 17 36 25.5 36Z" fill="white"/>
</svg>
