<svg width="40" height="40" viewBox="0 0 40 40" fill="none" xmlns="http://www.w3.org/2000/svg">
<path d="M33.3333 20C33.3333 18.1617 31.8383 16.6667 30 16.6667H28.3333V11.6667C28.3333 7.07166 24.595 3.33333 20 3.33333C15.405 3.33333 11.6666 7.07166 11.6666 11.6667V16.6667H9.99996C8.16163 16.6667 6.66663 18.1617 6.66663 20V33.3333C6.66663 35.1717 8.16163 36.6667 9.99996 36.6667H30C31.8383 36.6667 33.3333 35.1717 33.3333 33.3333V20ZM15 11.6667C15 8.91 17.2433 6.66666 20 6.66666C22.7566 6.66666 25 8.91 25 11.6667V16.6667H15V11.6667Z" fill="black" fill-opacity="0.5"/>
</svg>
