<svg width="52" height="48" viewBox="0 0 52 48" fill="none" xmlns="http://www.w3.org/2000/svg">
<g clip-path="url(#clip0)">
<path d="M29.25 3H13C11.2761 3 9.62279 3.63214 8.40381 4.75736C7.18482 5.88258 6.5 7.4087 6.5 9V39C6.5 40.5913 7.18482 42.1174 8.40381 43.2426C9.62279 44.3679 11.2761 45 13 45H29.25V42H13C12.138 42 11.3114 41.6839 10.7019 41.1213C10.0924 40.5587 9.75 39.7957 9.75 39V9C9.75 8.20435 10.0924 7.44129 10.7019 6.87868C11.3114 6.31607 12.138 6 13 6H29.25V13.5C29.25 14.6935 29.7636 15.8381 30.6779 16.682C31.5921 17.5259 32.8321 18 34.125 18H42.25V24H45.5V18L29.25 3Z" fill="white"/>
<path fill-rule="evenodd" clip-rule="evenodd" d="M51.5256 30.4381C51.6769 30.5775 51.797 30.743 51.8789 30.9252C51.9608 31.1075 52.003 31.3028 52.003 31.5001C52.003 31.6974 51.9608 31.8928 51.8789 32.075C51.797 32.2573 51.6769 32.4228 51.5256 32.5621L41.7756 41.5621C41.6246 41.7018 41.4453 41.8126 41.2479 41.8883C41.0505 41.9639 40.8388 42.0028 40.6251 42.0028C40.4114 42.0028 40.1997 41.9639 40.0023 41.8883C39.8049 41.8126 39.6255 41.7018 39.4746 41.5621L34.5996 37.0621C34.4485 36.9227 34.3287 36.7571 34.2469 36.5749C34.1651 36.3927 34.123 36.1974 34.123 36.0001C34.123 35.8029 34.1651 35.6076 34.2469 35.4254C34.3287 35.2431 34.4485 35.0776 34.5996 34.9381C34.7507 34.7987 34.93 34.688 35.1275 34.6125C35.3249 34.5371 35.5364 34.4982 35.7501 34.4982C35.9638 34.4982 36.1753 34.5371 36.3727 34.6125C36.5701 34.688 36.7495 34.7987 36.9006 34.9381L40.6251 38.3791L49.2246 30.4381C49.3755 30.2984 49.5549 30.1876 49.7523 30.112C49.9497 30.0364 50.1614 29.9974 50.3751 29.9974C50.5888 29.9974 50.8005 30.0364 50.9979 30.112C51.1953 30.1876 51.3746 30.2984 51.5256 30.4381Z" fill="white"/>
</g>
<defs>
<clipPath id="clip0">
<rect width="52" height="48" fill="white"/>
</clipPath>
</defs>
</svg>
