<svg width="51" height="49" viewBox="0 0 51 49" fill="none" xmlns="http://www.w3.org/2000/svg">
<path d="M23.3751 17.8645V25.3779C23.3751 26.0924 23.7788 26.7662 24.4163 27.1337L31.0463 30.9108C31.8113 31.3395 32.7888 31.0945 33.2351 30.3799C33.6813 29.6449 33.4476 28.7058 32.6826 28.277L26.5838 24.7858V17.8441C26.5626 17.0274 25.8401 16.3333 24.9688 16.3333C24.0976 16.3333 23.3751 17.0274 23.3751 17.8645ZM44.6251 19.3958V8.59535C44.6251 7.6766 43.4776 7.22744 42.8188 7.88077L39.0363 11.5149C37.0457 9.60233 34.6407 8.13501 31.9925 7.21748C29.3442 6.29995 26.518 5.9548 23.7151 6.2066C14.8113 6.98244 7.48006 13.8629 6.50256 22.4174C5.98584 27.2141 7.4524 32.0136 10.5858 35.7807C13.7193 39.5478 18.2684 41.9804 23.2519 42.5538C28.2354 43.1272 33.2537 41.7954 37.2244 38.8457C41.195 35.896 43.7996 31.5648 44.4763 26.7866C44.6251 25.5616 43.6263 24.4999 42.3513 24.4999C41.2888 24.4999 40.3963 25.2554 40.2688 26.2558C39.3551 33.3812 32.9588 38.8937 25.2876 38.7916C17.4038 38.6895 10.7526 32.2991 10.6251 24.7041C10.4976 16.7416 17.2338 10.2083 25.5001 10.2083C29.6013 10.2083 33.3201 11.8212 36.0188 14.3937L31.5776 18.6608C30.8976 19.3141 31.3651 20.4166 32.3213 20.4166H43.5626C44.1576 20.4166 44.6251 19.9674 44.6251 19.3958Z" fill="white"/>
</svg>
