<svg width="30" height="30" viewBox="0 0 30 30" fill="none" xmlns="http://www.w3.org/2000/svg">
<path d="M24.6078 4.19995H5.39221C5.07602 4.19995 4.77278 4.32556 4.5492 4.54914C4.32562 4.77272 4.20001 5.07596 4.20001 5.39215V24.6081C4.20009 24.9242 4.32573 25.2274 4.54931 25.4509C4.77288 25.6744 5.07607 25.8 5.39221 25.8H15.7371V17.4354H12.9222V14.1756H15.7371V11.7714C15.7371 8.98135 17.4411 7.46245 19.9299 7.46245C21.1221 7.46245 22.1466 7.55095 22.4454 7.59085V10.5066L20.7192 10.5075C19.3656 10.5075 19.1037 11.1507 19.1037 12.0945V14.1759H22.3317L21.9114 17.4357H19.1037V25.8H24.6081C24.9243 25.7999 25.2274 25.6742 25.4509 25.4507C25.6744 25.2271 25.8 24.9239 25.8 24.6078V5.39215C25.8 5.07596 25.6744 4.77272 25.4508 4.54914C25.2272 4.32556 24.924 4.19995 24.6078 4.19995Z" fill="white"/>
</svg>
