<svg width="30" height="30" viewBox="0 0 30 30" fill="none" xmlns="http://www.w3.org/2000/svg">
<path fill-rule="evenodd" clip-rule="evenodd" d="M14.9994 3.58887C8.53835 3.58887 3.30005 8.82747 3.30005 15.2895C3.30005 20.4588 6.65165 24.8442 11.3013 26.3904C11.8869 26.4987 12.0999 26.1384 12.0999 25.8273C12.0999 25.5501 12.0897 24.8148 12.0846 23.8374C8.82995 24.5451 8.14325 22.2687 8.14325 22.2687C7.61105 20.9172 6.84395 20.5578 6.84395 20.5578C5.78165 19.8324 6.92465 19.8465 6.92465 19.8465C8.09885 19.9296 8.71685 21.0519 8.71685 21.0519C9.76025 22.8399 11.4555 22.3224 12.1218 22.0248C12.2277 21.2673 12.5307 20.7528 12.8646 20.4597C10.2669 20.1645 7.53575 19.1607 7.53575 14.6775C7.53575 13.3998 7.99145 12.3552 8.73965 11.5371C8.61995 11.2425 8.21765 10.053 8.85455 8.44137C8.85455 8.44137 9.83675 8.12697 12.0723 9.64167C13.005 9.38097 14.0061 9.25077 15.0012 9.24687C15.9948 9.25107 16.9962 9.38097 17.9301 9.64167C20.1642 8.12697 21.1449 8.44137 21.1449 8.44137C21.7833 10.053 21.3813 11.2425 21.2613 11.5371C22.0113 12.3552 22.4637 13.3998 22.4637 14.6775C22.4637 19.1712 19.7286 20.1612 17.1222 20.4498C17.5416 20.8113 17.916 21.5268 17.916 22.6185C17.916 24.1818 17.9019 25.4433 17.9019 25.827C17.9019 26.1405 18.1122 26.505 18.7062 26.3889C23.3508 24.8394 26.7 20.4573 26.7 15.2895C26.7 8.82747 21.4617 3.58887 14.9994 3.58887Z" fill="white"/>
</svg>
