<svg width="30" height="30" viewBox="0 0 30 30" fill="none" xmlns="http://www.w3.org/2000/svg">
<path d="M20.3883 13.5864C20.3883 16.5621 17.976 18.9744 15.0003 18.9744C12.0246 18.9744 9.61231 16.5621 9.61231 13.5864C9.61231 12.7479 9.80941 11.9574 10.1508 11.25H4.20001V23.85C4.20001 25.005 5.14501 25.95 6.30001 25.95H23.7C24.855 25.95 25.8 25.005 25.8 23.85V11.25H19.8495C20.2034 11.9781 20.3876 12.7769 20.3883 13.5864Z" fill="white"/>
<path d="M23.7 4.05005H6.30001C5.14501 4.05005 4.20001 4.99505 4.20001 6.15005V10.35H10.6995C11.6829 9.04535 13.2405 8.19845 15 8.19845C16.7595 8.19845 18.3171 9.04535 19.3005 10.35H25.8V6.15005C25.8 4.99505 24.855 4.05005 23.7 4.05005ZM5.92681 9.36485H5.14501V6.33635C5.14499 6.085 5.2192 5.83924 5.35834 5.62992C5.49748 5.42059 5.69535 5.25703 5.92711 5.15975V9.36485H5.92681ZM7.20781 9.36485H6.46711V5.06045H7.20781V9.36485ZM8.48851 9.36485H7.74781V5.06045H8.48851V9.36485ZM9.76831 6.33635V9.36485H9.02851V5.06045H9.76831V6.33635ZM24.7053 8.08895C24.7054 8.25646 24.6724 8.42234 24.6083 8.57712C24.5443 8.7319 24.4503 8.87254 24.3319 8.99102C24.2135 9.1095 24.0729 9.20349 23.9181 9.26763C23.7634 9.33178 23.5975 9.36481 23.43 9.36485H21.3573C21.1898 9.36485 21.0239 9.33184 20.8691 9.26772C20.7143 9.2036 20.5737 9.10961 20.4552 8.99113C20.3368 8.87265 20.2428 8.73199 20.1787 8.57719C20.1146 8.42239 20.0817 8.25649 20.0817 8.08895V6.33635C20.0817 6.16881 20.1146 6.0029 20.1787 5.84811C20.2428 5.69331 20.3368 5.55265 20.4552 5.43417C20.5737 5.31569 20.7143 5.2217 20.8691 5.15758C21.0239 5.09345 21.1898 5.06045 21.3573 5.06045H23.43C23.5975 5.06045 23.7634 5.09346 23.9182 5.15758C24.073 5.22171 24.2136 5.3157 24.332 5.43419C24.4504 5.55267 24.5444 5.69333 24.6084 5.84813C24.6725 6.00292 24.7054 6.16882 24.7053 6.33635V8.08895Z" fill="white"/>
<path d="M15.0003 18.3445C17.6211 18.3445 19.7457 16.219 19.7457 13.5988C19.7457 10.9783 17.6214 8.85278 15.0003 8.85278C12.3789 8.85278 10.2543 10.9783 10.2543 13.5988C10.2543 16.2187 12.3789 18.3445 15.0003 18.3445ZM15 9.81758C17.088 9.81758 18.7812 11.5105 18.7812 13.5988C18.7812 15.6868 17.0883 17.38 15 17.38C12.9117 17.38 11.2188 15.6871 11.2188 13.5988C11.2191 11.5102 12.912 9.81758 15 9.81758Z" fill="white"/>
</svg>
