<svg width="30" height="30" viewBox="0 0 30 30" fill="none" xmlns="http://www.w3.org/2000/svg">
<path d="M26.55 7.83593C25.685 8.21911 24.7676 8.4705 23.8281 8.58173C24.8176 7.98965 25.5581 7.05797 25.9116 5.96033C24.9815 6.51249 23.9637 6.90131 22.9023 7.10993C22.4589 6.63696 21.923 6.26009 21.328 6.00269C20.7329 5.74528 20.0913 5.61283 19.443 5.61353C16.8258 5.61353 14.7036 7.73513 14.7036 10.3529C14.7036 10.724 14.7456 11.0861 14.8266 11.4332C10.8876 11.2355 7.3956 9.34853 5.058 6.48083C4.63652 7.20415 4.41504 8.02657 4.4163 8.86373C4.41568 9.64403 4.60781 10.4124 4.97563 11.1006C5.34345 11.7888 5.87557 12.3754 6.5247 12.8084C5.77221 12.7845 5.0363 12.5813 4.3782 12.2156C4.3776 12.2354 4.3776 12.2549 4.3776 12.2753C4.3776 14.5709 6.0111 16.4864 8.1789 16.9223C7.48087 17.1113 6.74901 17.139 6.0387 17.0033C6.6417 18.8858 8.3919 20.2565 10.4658 20.2949C8.78697 21.6124 6.71385 22.327 4.5798 22.3238C4.1973 22.3238 3.8202 22.3016 3.4491 22.2575C5.6161 23.6499 8.13814 24.3889 10.7139 24.3863C19.4313 24.3863 24.1983 17.165 24.1983 10.9028C24.1983 10.6976 24.1935 10.4927 24.1845 10.289C25.1129 9.6188 25.914 8.78803 26.55 7.83593Z" fill="white"/>
</svg>
