<svg xmlns="http://www.w3.org/2000/svg" viewBox="0 0 133.124 176.184">
  <defs>
    <style>
      .cls-1 {
        fill: #6b99d1;
        opacity: 0.15;
      }

      .cls-2 {
        fill: #291d51;
      }

      .cls-3 {
        fill: #f28f8f;
      }

      .cls-4 {
        fill: #2d2979;
      }

      .cls-5 {
        fill: #ffa8a7;
      }

      .cls-6 {
        fill: #1e3779;
      }

      .cls-7 {
        fill: #031f60;
      }

      .cls-8 {
        fill: #344593;
      }

      .cls-9 {
        fill: #e9fffb;
        opacity: 0.2;
      }

      .cls-10, .cls-14 {
        fill: none;
        stroke-miterlimit: 10;
      }

      .cls-10 {
        stroke: #e9fffb;
      }

      .cls-11 {
        fill: #3fe0c5;
      }

      .cls-12 {
        fill: #6cffe6;
      }

      .cls-13 {
        fill: #dceeff;
      }

      .cls-15 {
        fill: #a5cbfa;
      }

      .cls-16 {
        fill: #c8e2ff;
      }

      .cls-17 {
        fill: #3a2c6d;
      }

      .cls-18 {
        fill: #7fa8e6;
      }

      .cls-19 {
        fill: #f5fbfb;
      }

      .cls-20, .cls-21 {
        stroke: none;
      }

      .cls-21 {
        fill: #fff;
      }
    </style>
  </defs>
  <g id="Group_159" data-name="Group 159" transform="translate(-38.33 -259.718)">
    <path id="Path_556" data-name="Path 556" class="cls-1" d="M38.689,418.25,138.508,360.6a1.9,1.9,0,0,1,1.731,0l2.341,1.358a.529.529,0,0,1,0,1L42.751,420.6a1.921,1.921,0,0,1-1.732,0l-2.33-1.346A.528.528,0,0,1,38.689,418.25Z"/>
    <g id="Group_151" data-name="Group 151">
      <path id="Path_557" data-name="Path 557" class="cls-1" d="M112.633,407.93l7.052-4.072c4.783-2.76,11.388-3.424,14.753-1.481s2.216,5.756-2.567,8.518l-7.052,4.071c-4.783,2.762-11.388,3.425-14.753,1.482S107.85,410.691,112.633,407.93Z"/>
      <g id="Group_148" data-name="Group 148">
        <path id="Path_558" data-name="Path 558" class="cls-2" d="M127.147,409.658s.372.655,2.39-.194a5.326,5.326,0,0,0,2.585-1.856s-.525-4.048-1.773-3.03S127.147,409.658,127.147,409.658Z"/>
        <path id="Path_559" data-name="Path 559" class="cls-3" d="M132.214,395.487c-.035,2.123-.087,3.749.72,4.887a4.4,4.4,0,0,1,.875,1.912,6.058,6.058,0,0,0-3.618,1.989c-1.218,1.651-1.151,3.3-2.281,3.576s-3.018-1.026-3.018-1.026a1.975,1.975,0,0,0,1.664-1.549,52.993,52.993,0,0,0,1.713-5.552c.044-.844,0-4.1,0-4.1Z"/>
        <path id="Path_560" data-name="Path 560" class="cls-4" d="M132.239,400.925a4.609,4.609,0,0,0-3.178,2.44c-.533,1.209-1.415,2.908-2.094,3.289s-1.881-.175-2.907-.18-1.75.468-1.808,1.216l4.269,2.022c.985.467,1.815.481,2.588-1.564s1.067-3.2,1.681-1.805a19.591,19.591,0,0,1,.869,4.518.991.991,0,0,0,1.242-.518,20.572,20.572,0,0,1,.15-2.731c.176-1.257,1.318-2.839,1.231-4.352S133.371,400.854,132.239,400.925Z"/>
      </g>
      <g id="Group_149" data-name="Group 149">
        <path id="Path_561" data-name="Path 561" class="cls-3" d="M127.147,377.5l5.155.452a12.178,12.178,0,0,1,1.173,3.733c1.452,3.779-1.163,13.55-.911,17.984,0,0-2.352,1.253-4.295.056,0,0-2.033-18.984-2.371-22.385Z"/>
      </g>
      <g id="Group_150" data-name="Group 150">
        <path id="Path_562" data-name="Path 562" class="cls-2" d="M116.569,414.656s.372.654,2.39-.193a5.319,5.319,0,0,0,2.584-1.856s-.524-4.048-1.772-3.031S116.569,414.656,116.569,414.656Z"/>
        <path id="Path_563" data-name="Path 563" class="cls-5" d="M121.636,400.485c-.035,2.124-.087,3.749.719,4.888a4.4,4.4,0,0,1,.876,1.912,6.058,6.058,0,0,0-3.618,1.989c-1.219,1.651-1.151,3.3-2.281,3.576s-3.019-1.026-3.019-1.026a1.976,1.976,0,0,0,1.665-1.549,53.066,53.066,0,0,0,1.713-5.552c.044-.844,0-4.1,0-4.1Z"/>
        <path id="Path_564" data-name="Path 564" class="cls-4" d="M121.661,405.924a4.607,4.607,0,0,0-3.178,2.44c-.533,1.209-1.415,2.908-2.094,3.288s-1.881-.174-2.907-.179-1.751.468-1.808,1.216l4.269,2.022c.985.467,1.815.481,2.588-1.564s1.067-3.2,1.681-1.8a19.591,19.591,0,0,1,.869,4.518.991.991,0,0,0,1.242-.518,20.572,20.572,0,0,1,.15-2.731c.176-1.257,1.317-2.839,1.231-4.353S122.793,405.853,121.661,405.924Z"/>
      </g>
      <path id="Path_565" data-name="Path 565" class="cls-5" d="M122.906,387.2c1.392,2.271-.285,8.464-.95,17.4a4.18,4.18,0,0,1-4.265.349s-1.924-18.631-2.262-22.032"/>
    </g>
    <g id="Group_155" data-name="Group 155">
      <g id="Group_152" data-name="Group 152">
        <path id="Path_566" data-name="Path 566" class="cls-6" d="M143.992,344.878l-96.73,55.83-3.31,1.91L40,400.349a1.943,1.943,0,0,1-.86-1.5V318.328a2.012,2.012,0,0,1,.29-.979,2.05,2.05,0,0,1,.71-.75l98.16-56.67a1.881,1.881,0,0,1,1.73,0l3.93,2.269Z"/>
        <path id="Path_567" data-name="Path 567" class="cls-7" d="M47.262,321.868v78.84l-3.31,1.91L40,400.349a1.943,1.943,0,0,1-.86-1.5V318.328a2.012,2.012,0,0,1,.29-.979Z"/>
        <path id="Path_568" data-name="Path 568" class="cls-8" d="M45.8,318.022l96.355-55.63c1.435-.828,2.6-.157,2.6,1.5V342.32a5.743,5.743,0,0,1-2.6,4.5L45.8,402.45c-1.435.829-2.6.157-2.6-1.5V322.522A5.746,5.746,0,0,1,45.8,318.022Z"/>
      </g>
      <g id="Group_153" data-name="Group 153">
        <path id="Path_569" data-name="Path 569" class="cls-9" d="M62.092,318.022l96.355-55.63c1.435-.828,2.6-.157,2.6,1.5V342.32a5.743,5.743,0,0,1-2.6,4.5L62.093,402.45c-1.435.829-2.6.157-2.6-1.5V322.522A5.745,5.745,0,0,1,62.092,318.022Z"/>
        <path id="Path_570" data-name="Path 570" class="cls-10" d="M62.092,318.022l96.355-55.63c1.435-.828,2.6-.157,2.6,1.5V342.32a5.743,5.743,0,0,1-2.6,4.5L62.093,402.45c-1.435.829-2.6.157-2.6-1.5V322.522A5.745,5.745,0,0,1,62.092,318.022Z"/>
      </g>
      <g id="Group_154" data-name="Group 154">
        <path id="Path_571" data-name="Path 571" class="cls-11" d="M81.761,330.087l.751-.434a5.9,5.9,0,0,1,6.335.031c.939.633,3.329,1.919,3.329,1.919l1.291,7.188a5.826,5.826,0,0,0,8.6,3.023l.062-.037A14.728,14.728,0,0,0,108.69,331.3l3.086-25.4a14.427,14.427,0,0,1,6.3-10.336,5.458,5.458,0,0,1,5.336-.208c1.258.654,4.023,2.325,4.023,2.325l2.708,15.271c1.338,3.627,4.823,5.182,7.784,3.473a4.411,4.411,0,0,1,4.719.012c1.124.717,3.34,1.97,3.34,1.97l2.828,15.185L75.7,380.491l-4.062-2.344,3.426-37.588A15.145,15.145,0,0,1,81.761,330.087Z"/>
        <path id="Path_572" data-name="Path 572" class="cls-12" d="M85.823,332.433l.752-.435a5.718,5.718,0,0,1,8.508,2.819l2.446,6.32a5.826,5.826,0,0,0,8.605,3.021l.061-.035a14.734,14.734,0,0,0,6.558-10.482l3.085-25.4a13.717,13.717,0,0,1,6.3-10.334c3.206-1.851,6.89-.412,8.228,3.215l3.84,14.173c1.338,3.627,4.823,5.182,7.783,3.472s6.186-.072,7.2,3.658l3.685,13.509L75.7,380.491,79.125,342.9A15.145,15.145,0,0,1,85.823,332.433Z"/>
        <path id="Path_573" data-name="Path 573" class="cls-11" d="M76.31,320.537c0,.8.719,1.035,1.605.523l14.362-8.291a3.216,3.216,0,0,0,1.606-2.377c0-.8-.719-1.035-1.606-.523l-14.362,8.292A3.216,3.216,0,0,0,76.31,320.537Z"/>
        <path id="Path_574" data-name="Path 574" class="cls-11" d="M76.31,326.4c0,.8.719,1.035,1.605.523l14.362-8.292a3.215,3.215,0,0,0,1.606-2.376c0-.8-.719-1.035-1.606-.523l-14.362,8.291A3.216,3.216,0,0,0,76.31,326.4Z"/>
      </g>
    </g>
    <g id="Group_156" data-name="Group 156">
      <path id="Path_575" data-name="Path 575" class="cls-1" d="M170.377,418.865l-23.238-13.417a5.745,5.745,0,0,0-5.2,0L118.7,418.865c-1.435.828-1.435,2.172,0,3l23.238,13.416a5.741,5.741,0,0,0,5.2,0l23.238-13.416C171.812,421.036,171.812,419.693,170.377,418.865Z"/>
      <path id="Path_576" data-name="Path 576" class="cls-13" d="M170.377,390.108l-23.238-13.417a5.745,5.745,0,0,0-5.2,0L118.7,390.108c-1.435.83-1.435,2.172,0,3l23.238,13.417a5.747,5.747,0,0,0,5.2,0l23.238-13.417C171.812,392.28,171.812,390.936,170.377,390.108Z"/>
      <g id="Path_577" data-name="Path 577" class="cls-14">
        <path class="cls-20" d="M170.377,390.108l-23.238-13.417a5.745,5.745,0,0,0-5.2,0L118.7,390.108c-1.435.83-1.435,2.172,0,3l23.238,13.417a5.747,5.747,0,0,0,5.2,0l23.238-13.417C171.812,392.28,171.812,390.936,170.377,390.108Z"/>
        <path class="cls-21" d="M 144.5406341552734 377.0700073242188 C 143.7435913085938 377.0700073242188 142.9790496826172 377.2474975585938 142.4429931640625 377.5570373535156 L 119.2046813964844 390.9736328125 C 118.7787322998047 391.2200012207031 118.6276702880859 391.4698181152344 118.6277465820313 391.60888671875 C 118.6278228759766 391.7475891113281 118.7787322998047 391.99658203125 119.2040100097656 392.2419738769531 L 142.4417724609375 405.6588439941406 C 142.9783325195313 405.9684448242188 143.7432861328125 406.14599609375 144.5404968261719 406.14599609375 C 145.3377075195313 406.14599609375 146.1026611328125 405.9684448242188 146.6389923095703 405.6589660644531 L 169.8772277832031 392.2418518066406 C 170.3023834228516 391.9965209960938 170.4532470703125 391.7470703125 170.4532470703125 391.6080017089844 C 170.4532470703125 391.4689331054688 170.3023834228516 391.219482421875 169.8769836425781 390.9740295410156 L 146.6392211914063 377.5571594238281 C 146.1026611328125 377.24755859375 145.3377532958984 377.0700073242188 144.5406341552734 377.0700073242188 M 144.5406188964844 376.0700073242188 C 145.4810028076172 376.0700073242188 146.4215087890625 376.2770080566406 147.1390075683594 376.6910095214844 L 170.3769989013672 390.1080017089844 C 171.8119964599609 390.9360046386719 171.8119964599609 392.2799987792969 170.3769989013672 393.1080017089844 L 147.1390075683594 406.5249938964844 C 146.4215087890625 406.9389953613281 145.4810028076172 407.14599609375 144.5404968261719 407.14599609375 C 143.5999908447266 407.14599609375 142.6595001220703 406.9389953613281 141.9420013427734 406.5249938964844 L 118.7040100097656 393.1080017089844 C 117.2689971923828 392.2799987792969 117.2689971923828 390.93798828125 118.7040100097656 390.1080017089844 L 141.9429931640625 376.6910095214844 C 142.6600036621094 376.2770080566406 143.6002502441406 376.0700073242188 144.5406188964844 376.0700073242188 Z"/>
      </g>
      <path id="Path_578" data-name="Path 578" class="cls-15" d="M171.453,415.06a1.842,1.842,0,0,1-1.076,1.5l-23.238,13.418a5.3,5.3,0,0,1-2.6.621V407.145a5.266,5.266,0,0,0,2.6-.62l23.238-13.417a1.819,1.819,0,0,0,1.076-1.5Z"/>
      <path id="Path_579" data-name="Path 579" class="cls-16" d="M117.628,415.06a1.84,1.84,0,0,0,1.076,1.5l23.238,13.418a5.3,5.3,0,0,0,2.6.621V407.145a5.265,5.265,0,0,1-2.6-.62L118.7,393.108a1.819,1.819,0,0,1-1.076-1.5Z"/>
    </g>
    <g id="Group_158" data-name="Group 158">
      <path id="Path_580" data-name="Path 580" class="cls-17" d="M149.084,338.82a8.968,8.968,0,0,0-6.449-1.562,5.992,5.992,0,0,0-3.369,2.165,5.382,5.382,0,0,0-.726,3.971,2.406,2.406,0,0,0,1.813,2.034,2.912,2.912,0,0,0,1.717-.368,7.069,7.069,0,0,0,1.1-.914c.723-.582,1.426-1.188,2.121-1.8q1.715-1.52,3.366-3.109C148.679,339.212,149.069,338.81,149.084,338.82Z"/>
      <path id="Path_581" data-name="Path 581" class="cls-3" d="M132.457,372.6c2.45.893,18.152,7.1,18.152,7.1s-.653,11.738-4.187,9.842L130.216,379.7l-4.318-2.365C125.518,373.511,129.768,371.624,132.457,372.6Z"/>
      <g id="Group_157" data-name="Group 157">
        <path id="Path_582" data-name="Path 582" class="cls-5" d="M115.429,382.914c-.381-3.828,3.87-5.715,6.558-4.734,2.45.892,18.485,6.548,18.485,6.548l14.276-.828c2.454,5.853-1.77,8.77-6.354,10.785s-8.908,2.333-12.441.436l-16.207-9.842,2.086-1.753a12.329,12.329,0,0,1,1.074,3.672"/>
      </g>
      <path id="Path_583" data-name="Path 583" class="cls-5" d="M139.885,343.916c.53-3.42,3-6.01,6.524-5.81a6.782,6.782,0,0,1,3.443,12.388,8.208,8.208,0,0,1-.615,1.008s.481,2.363.573,2.7c.256.929.469.638,3.123.672,1.25.017.764.232.09,1.836-.6,1.44-2.989,2.868-5.157,3.137s-5.578-1.253-4.291-2.132,1.848-1.042,1.71-1.707a16.675,16.675,0,0,0-.612-2.155,9.136,9.136,0,0,1-1.476.34c-1.4.121-2-.937-2.657-2.46A15.042,15.042,0,0,1,139.885,343.916Z"/>
      <path id="Path_584" data-name="Path 584" class="cls-3" d="M144.673,353.849a9.136,9.136,0,0,1-1.476.34,1.95,1.95,0,0,1-.874-.109,4.721,4.721,0,0,0,1.3-.765c1.056-.837.863-2.68.849-3.693l.362.961.67.629,2.65.7,1.136-.136c.128.622.445,2.159.518,2.424.256.929.469.638,3.123.672,1.25.017.764.232.09,1.836a5.484,5.484,0,0,1-2.688,2.382l-1.129.443c-.045.015-.091.029-.137.042l-5.244-2.028c1.1-.73,1.589-.923,1.46-1.541A16.675,16.675,0,0,0,144.673,353.849Z"/>
      <path id="Path_585" data-name="Path 585" class="cls-18" d="M153.246,375.451c.139,1.931,1.061,3.705,2.224,7.438s1.4,7.914-5.3,11.263-11.067,2.8-14.448,1.114-15.974-9.987-15.974-9.987c-1.473-1.954,4.231-10.7,15.691-11.535l8.08,3.2Z"/>
      <path id="Path_586" data-name="Path 586" class="cls-19" d="M150.764,354.893c.487.609.544,1.379-1.349,1.855a5.97,5.97,0,0,1-4.138-.318,27.71,27.71,0,0,0-4.282,2.268c-4.228,2.937-5.249,8.036-.984,9.794.259,1.916.576,6.85.658,7.972,3.606,2.518,10.933,1.66,12.577-1.013a21.642,21.642,0,0,1,.25-2.666c1.722-6.381,3.066-8.075,2.585-12.888-.274-2.754-.485-4.138-1.95-4.875A12.617,12.617,0,0,0,150.764,354.893Z"/>
      <path id="Path_587" data-name="Path 587" class="cls-17" d="M150.6,350.688a7.393,7.393,0,0,0,2.217-5.4,6.805,6.805,0,0,0-6.41-7.179,5.863,5.863,0,0,0-5.494,2.921,3.7,3.7,0,0,0,.677.853,1.6,1.6,0,0,0,.312,1.47,2.026,2.026,0,0,1,.5,1.632,9.057,9.057,0,0,0,0,2.127,1.932,1.932,0,0,0,1.09,1.384,5.759,5.759,0,0,1,.579-2.434c.621-.859,1.471-.867,2.284.088a2.913,2.913,0,0,1-.115,2.982c-.915,1.259-1.767.493-1.767.493.313.84.054,2.011,1.548,2.356a5.1,5.1,0,0,0,3.59-.532A6.534,6.534,0,0,0,150.6,350.688Z"/>
      <path id="Path_588" data-name="Path 588" class="cls-17" d="M150.154,339.51c1.765-.5,3.409,2.207,4.034,5.947s.661,6.3-.481,7.689-5.871,3.546-10.263,1.939c0,0,1.219-.675,1.03-5.463a3.624,3.624,0,0,0,3.483.5c2.3-.642,3.162-2.626,3-5.251A36.952,36.952,0,0,0,150.154,339.51Z"/>
      <path id="Path_589" data-name="Path 589" class="cls-5" d="M116.2,358.128a23.237,23.237,0,0,1,1.321,2.566,5.2,5.2,0,0,0,1.2,2.2c.731.819,2.876,2.11,5.993,3.761s5.6,1.641,7.454.98c4.054-1.448,6.337-4.952,8.956-6.961,1.835-1.408,3.592-.716,3.868.611.215,1.036-.735,3.907-3.9,6.83-2.448,2.264-6.607,4.734-10.051,4.752a16.93,16.93,0,0,1-6.7-1.552,60.947,60.947,0,0,1-7.723-4.625c-.718-.47-1.368-.642-2.844-1.379a10.23,10.23,0,0,1-3.756-3.1c-.753-1.156-.842-1.692-.675-1.946.21-.321.564-.238.968.251a8.376,8.376,0,0,0,2.147,2.1s-.939-1.024-1.446-1.687A8.306,8.306,0,0,1,109.908,359c-.259-.669.337-1.552.757-1.069s.614.969,1.379,1.94a8.228,8.228,0,0,0,1.381,1.392,15.6,15.6,0,0,1-1.249-2.137,3.489,3.489,0,0,1-.425-1.914c.031-.346.531-.742.972-.075A12.565,12.565,0,0,0,114.3,359.7c.678.746,1.261,1.179,1.284.979s-.407-.611-.634-1.462c-.217-.812.054-1.738.519-1.823S115.847,357.327,116.2,358.128Z"/>
    </g>
  </g>
</svg>
