<svg xmlns="http://www.w3.org/2000/svg" xmlns:xlink="http://www.w3.org/1999/xlink" viewBox="0 0 106.187 161.724">
  <defs>
    <style>
      .cls-1 {
        fill: #ffa8a7;
      }

      .cls-2 {
        fill: #e4f2f2;
      }

      .cls-3 {
        fill: #2d2979;
      }

      .cls-4 {
        fill: #7fa8e6;
      }

      .cls-5 {
        fill: #597bc6;
      }

      .cls-6 {
        fill: #f28f8f;
      }

      .cls-7 {
        fill: #f5fbfb;
      }

      .cls-8 {
        fill: #c8dbda;
      }

      .cls-9 {
        fill: #543354;
      }

      .cls-10 {
        fill: #6b99d1;
        opacity: 0.15;
      }

      .cls-11 {
        fill: #dceeff;
      }

      .cls-12 {
        fill: #a5cbfa;
      }

      .cls-13 {
        fill: #c8e2ff;
      }

      .cls-14, .cls-21 {
        fill: none;
        stroke-miterlimit: 10;
      }

      .cls-15 {
        fill: #344593;
      }

      .cls-16 {
        fill: #1e3779;
      }

      .cls-17 {
        fill: #031f60;
      }

      .cls-18 {
        fill: #57f7e0;
      }

      .cls-19 {
        fill: #6cffe6;
      }

      .cls-20 {
        fill: #abffef;
      }

      .cls-21 {
        stroke: #fff;
        stroke-width: 0.75px;
      }

      .cls-22 {
        opacity: 0.3;
        fill: url(#linear-gradient);
      }

      .cls-23 {
        opacity: 0.5;
        fill: url(#linear-gradient-2);
      }

      .cls-24, .cls-25 {
        stroke: none;
      }

      .cls-25 {
        fill: #fff;
      }
    </style>
    <linearGradient id="linear-gradient" x1="1.001" y1="0.807" x2="0.204" y2="0.318" gradientUnits="objectBoundingBox">
      <stop offset="0" stop-color="#57f7e0"/>
      <stop offset="0.041" stop-color="#57f7e0" stop-opacity="0.906"/>
      <stop offset="0.144" stop-color="#57f7e0" stop-opacity="0.698"/>
      <stop offset="0.251" stop-color="#57f7e0" stop-opacity="0.51"/>
      <stop offset="0.361" stop-color="#57f7e0" stop-opacity="0.353"/>
      <stop offset="0.473" stop-color="#57f7e0" stop-opacity="0.224"/>
      <stop offset="0.59" stop-color="#57f7e0" stop-opacity="0.125"/>
      <stop offset="0.712" stop-color="#57f7e0" stop-opacity="0.055"/>
      <stop offset="0.843" stop-color="#57f7e0" stop-opacity="0.012"/>
      <stop offset="1" stop-color="#57f7e0" stop-opacity="0"/>
    </linearGradient>
    <linearGradient id="linear-gradient-2" x1="0.001" y1="0.809" x2="0.641" y2="0.413" xlink:href="#linear-gradient"/>
  </defs>
  <g id="Group_45" data-name="Group 45" transform="translate(-168.7 -20.788)">
    <g id="Group_34" data-name="Group 34">
      <g id="Group_33" data-name="Group 33">
        <path id="Path_324" data-name="Path 324" class="cls-1" d="M210.493,73.273a21.429,21.429,0,0,0-2.872-.028,9.119,9.119,0,0,1-2.788.106c-1-.126-3.766-2.225-5.992-4.2a24.1,24.1,0,0,1-5.692-7.7c-1.171-3.114-2.972-9.534-3.817-11.687s-1.945-2.566-3.287-2.754c-1.577-.22-2.6.4-1.765,3.634s2.64,9.4,4.859,13.362a30.919,30.919,0,0,0,6.421,7.857,36.169,36.169,0,0,0,7.286,4.853c.752.415,1.208.909,2.549,1.87a10.216,10.216,0,0,0,4.495,1.873c1.375.126,1.89-.046,2.037-.312.184-.335-.054-.609-.675-.739a8.383,8.383,0,0,1-2.857-.918s1.344.351,2.167.49a8.308,8.308,0,0,0,2.218.079c.713-.084,1.215-1.022.593-1.168s-1.145-.09-2.361-.314a8.22,8.22,0,0,1-1.875-.57,15.561,15.561,0,0,0,2.473.106,3.477,3.477,0,0,0,1.89-.519c.292-.189.409-.816-.387-.894a12.58,12.58,0,0,1-3-.2c-.976-.251-1.632-.564-1.465-.678s.731.074,1.589-.122c.819-.188,1.511-.86,1.37-1.311S211.366,73.211,210.493,73.273Z"/>
        <path id="Path_325" data-name="Path 325" class="cls-2" d="M189.987,50.89c-.536-1.774-.951-2.616-2.017-3.364a3.379,3.379,0,0,0-1.978-.688L183.7,56.982l2.295,5.2c3.61.924,6.611-2.908,6.611-2.908S190.481,52.527,189.987,50.89Z"/>
        <path id="Path_326" data-name="Path 326" class="cls-3" d="M177.9,126.851a13.206,13.206,0,0,1-.535,1.549,6.819,6.819,0,0,0-.6,2.452c.043.6,1.29,1.633,2.193,1.892a5.815,5.815,0,0,1,2.6,2.194,5.348,5.348,0,0,0,3.8,2.107c1.307.044,2.8-.043,3.187-.516s.043-1.119-2.365-3.441-4.041-3.755-4.623-5.662Z"/>
        <path id="Path_327" data-name="Path 327" class="cls-3" d="M171.384,133.978a4.679,4.679,0,0,0-.674,3.073,17,17,0,0,1-.211,4.272,7.8,7.8,0,0,0,1.367,4.742,2,2,0,0,0,3.468-.572,8.052,8.052,0,0,0,.352-5.1c-.458-1.8.151-3.175-.15-4.382a10.386,10.386,0,0,0-.729-2.034Z"/>
        <path id="Path_328" data-name="Path 328" class="cls-4" d="M171.384,84.295c.066,2.021.695,10.8.976,15.445s.695,10.054.695,10.054a51.037,51.037,0,0,0-1.671,7.65c-.518,3.98,0,16.534,0,16.534a3.169,3.169,0,0,0,3.423,0s2.36-11.064,3.352-15.591,2.016-6.671,2.215-9.517,1.2-18.651,1.2-18.651l.537.03,1.307,14.446a23.424,23.424,0,0,0-2.478,5.635c-.734,2.846-3.043,16.521-3.043,16.521a2.929,2.929,0,0,0,3.659.575s8.034-18.371,8.766-20.181-.335-27.716-.335-27.716Z"/>
        <path id="Path_329" data-name="Path 329" class="cls-5" d="M181.576,90.219a26.83,26.83,0,0,0,5.272-2.607,8.938,8.938,0,0,1-3.184,2.622c-.187,1.9-.244,14.461-.244,14.461l-1.307-14.446Z"/>
        <path id="Path_330" data-name="Path 330" class="cls-1" d="M176.23,45.232s.226,4.408.128,4.8-2.022,1.682-2.583,2.145,3.047,4.021,4.8,4.826,7.312-1.317,7.409-4.046-.95-5.021-1.8-5.142S176.23,45.232,176.23,45.232Z"/>
        <path id="Path_331" data-name="Path 331" class="cls-6" d="M176.23,45.208l.128,3.053s2.81,2.664,5.051,2.262c1.246-.224,1.121-1.044,1.121-1.044V46.916Z"/>
        <path id="Path_332" data-name="Path 332" class="cls-7" d="M175.731,50.688s3.2,4.763,7.66,5.212c1.4-1.386,1.534-6.321-.414-7.9,0,0,1.79-1.443,3.015-1.164a6.322,6.322,0,0,1,2.754,3.516,28.766,28.766,0,0,1,1.573,10.2c-.075,4.676.005,18.959.005,18.959s-.628,3.022-4.661,5.269-7.034,2.467-9.77,1.829c-2.259-.527-4.124-1.321-4.9-2.961.2-3.276,1.665-11.828,1.119-15.948s-1.417-7.2-1.642-10.528.438-3.264,2.109-4.452A25.987,25.987,0,0,1,175.731,50.688Z"/>
        <path id="Path_333" data-name="Path 333" class="cls-2" d="M183.391,55.9a25.4,25.4,0,0,0,.382-3.257,10.425,10.425,0,0,0-1.24-3.521V47.886a2.925,2.925,0,0,1,1.632,1.064,6.877,6.877,0,0,1,1.615,4.85A5.627,5.627,0,0,1,183.391,55.9Z"/>
        <path id="Path_334" data-name="Path 334" class="cls-7" d="M183.391,55.9c.324-.629.942-2.748,1.244-3.063.588-.194,1.145.964,1.145.964a3.034,3.034,0,0,1-.759,1.929A1.4,1.4,0,0,1,183.391,55.9Z"/>
        <path id="Path_335" data-name="Path 335" class="cls-8" d="M184.635,52.836c-.3.315-.92,2.434-1.244,3.063a10.421,10.421,0,0,1,.674-1.018c.333-.426.734-1.239,1.715-1.081C185.78,53.8,185.223,52.642,184.635,52.836Z"/>
        <path id="Path_336" data-name="Path 336" class="cls-1" d="M186.2,38.664h0c-.526-3.421-2.99-6.013-6.518-5.817a6.782,6.782,0,0,0-3.456,12.384,6.942,6.942,0,0,0,.546,1.5c1.248,1.46,5.021,2.361,6.105,2.206a3.232,3.232,0,0,0,2.809-2.3C186.86,43.946,186.492,40.355,186.2,38.664Z"/>
        <path id="Path_337" data-name="Path 337" class="cls-9" d="M185.69,35.906a6.72,6.72,0,0,0-7.048-2.921,6.808,6.808,0,0,0-4.273,2.937c-1.474.525-1.622,1.629-1.441,3.427a13.186,13.186,0,0,0,1.485,5.334c.308.536,1.278.178,1.816.548-.075-.231-1.853-2.889-.021-3.477a2.224,2.224,0,0,1,.381,1.394s.908-.085.7-1.15c-.057-.3-.11-.569-.158-.814a3.133,3.133,0,0,1,.52-2.359,2.74,2.74,0,0,0,.481-2.221,9.112,9.112,0,0,0,5.163.4A4.691,4.691,0,0,0,185.69,35.906Z"/>
        <path id="Path_338" data-name="Path 338" class="cls-9" d="M174.369,35.922s-.422-1.345,1.311-2.659c2.062-1.563,4.961-1.215,8.017,0,1.953.776,4.984-.176,4.4,2.064-.861,3.281-7.2,3.564-9.957,1.277A7.167,7.167,0,0,0,174.369,35.922Z"/>
        <path id="Path_339" data-name="Path 339" class="cls-1" d="M176.23,45.208s-.158.363-.82.4c-1.237.061-2.687-2.238-1.689-3.8a1.615,1.615,0,0,1,2.487-.05Z"/>
      </g>
      <path id="Path_340" data-name="Path 340" class="cls-2" d="M176.38,49.15c.082.677,3.669,3.347,4.524,3.693s2.487,3.057,2.487,3.057a3.55,3.55,0,0,0-3.261,1.273s-5.1-2.144-5.921-5.57c0,0,.949-1.837,1.092-2.306s.525-1.013,1.057-1.036Z"/>
      <path id="Path_341" data-name="Path 341" class="cls-7" d="M180.13,57.173s.378-2.627.924-2.866,2.337,1.593,2.337,1.593A4.907,4.907,0,0,1,180.13,57.173Z"/>
      <path id="Path_342" data-name="Path 342" class="cls-8" d="M181.054,54.307c-.546.239-.924,2.866-.924,2.866A11.11,11.11,0,0,1,182,55.729a3.4,3.4,0,0,1,1.39.17S181.6,54.067,181.054,54.307Z"/>
    </g>
    <g id="Group_44" data-name="Group 44">
      <g id="Group_35" data-name="Group 35">
        <path id="Path_343" data-name="Path 343" class="cls-10" d="M273.807,154.4,226.2,181.893a5.77,5.77,0,0,1-5.2,0L173.387,154.4a1.812,1.812,0,0,1-1.08-1.5,1.532,1.532,0,0,1,.57-1.129,2.581,2.581,0,0,1,.51-.371L221,123.922a5.741,5.741,0,0,1,5.2,0l47.61,27.48C275.237,152.232,275.237,153.583,273.807,154.4Z"/>
        <path id="Path_344" data-name="Path 344" class="cls-11" d="M273.807,122.549l-47.61,27.48a5.263,5.263,0,0,1-2.6.62,5.329,5.329,0,0,1-2.59-.61l-47.62-27.49a1.837,1.837,0,0,1-1.08-1.5,1.812,1.812,0,0,1,1.08-1.5l7.56-4.36L221,92.059a5.741,5.741,0,0,1,5.2,0l47.61,27.49C275.237,120.369,275.237,121.719,273.807,122.549Z"/>
        <path id="Path_345" data-name="Path 345" class="cls-12" d="M223.6,139.809v10.84a5.329,5.329,0,0,1-2.59-.61l-47.62-27.49a1.837,1.837,0,0,1-1.08-1.5v-9.39a1.536,1.536,0,0,1,.57-1.13l8.07,4.66Z"/>
        <path id="Path_346" data-name="Path 346" class="cls-13" d="M223.6,139.809v10.84a5.329,5.329,0,0,0,2.59-.61l47.62-27.49a1.837,1.837,0,0,0,1.08-1.5v-9.39a1.536,1.536,0,0,0-.57-1.13l-8.07,4.66Z"/>
        <path id="Path_347" data-name="Path 347" class="cls-11" d="M273.807,113.159l-47.61,27.49a5.762,5.762,0,0,1-5.2,0l-47.61-27.49a1.812,1.812,0,0,1-1.08-1.5,1.536,1.536,0,0,1,.57-1.13,2.578,2.578,0,0,1,.51-.37L221,82.679a5.741,5.741,0,0,1,5.2,0l47.61,27.48C275.237,110.989,275.237,112.339,273.807,113.159Z"/>
        <g id="Path_348" data-name="Path 348" class="cls-14">
          <path class="cls-24" d="M273.807,113.159l-47.61,27.49a5.762,5.762,0,0,1-5.2,0l-47.61-27.49a1.812,1.812,0,0,1-1.08-1.5,1.536,1.536,0,0,1,.57-1.13,2.578,2.578,0,0,1,.51-.37L221,82.679a5.741,5.741,0,0,1,5.2,0l47.61,27.48C275.237,110.989,275.237,112.339,273.807,113.159Z"/>
          <path class="cls-25" d="M 223.5970001220703 140.2689971923828 C 224.4020690917969 140.2689971923828 225.1660766601563 140.0926818847656 225.6969757080078 139.7830047607422 L 273.3095703125 112.29150390625 C 273.7296447753906 112.0506134033203 273.879150390625 111.8025817871094 273.8794860839844 111.6633834838867 C 273.8798522949219 111.5223999023438 273.7296447753906 111.2703399658203 273.3070983886719 111.0250930786133 L 225.6976318359375 83.54537963867188 C 225.1585998535156 83.23468780517578 224.3915863037109 83.05650329589844 223.5932464599609 83.05650329589844 C 222.7959442138672 83.05650329589844 222.0326232910156 83.23415374755859 221.4968872070313 83.54508972167969 L 173.8868865966797 111.0250930786133 L 173.8779602050781 111.0302276611328 L 173.8689422607422 111.0351943969727 C 173.7591247558594 111.0955963134766 173.6543273925781 111.1718292236328 173.5574493408203 111.2617950439453 L 173.5506744384766 111.2680740356445 L 173.5438079833984 111.2742462158203 C 173.3955230712891 111.4069061279297 173.3070068359375 111.5507354736328 173.3070068359375 111.6589965820313 C 173.3070068359375 111.846321105957 173.5272674560547 112.0881042480469 173.8818359375 112.2900161743164 L 173.8844299316406 112.2914886474609 L 173.8870239257813 112.2929992675781 L 221.5008697509766 139.7852172851563 C 222.0279083251953 140.0926818847656 222.7919311523438 140.2689971923828 223.5970001220703 140.2689971923828 M 223.5970001220703 141.2689971923828 C 222.6569976806641 141.2689971923828 221.7169952392578 141.0690002441406 220.9969940185547 140.6490020751953 L 173.3869934082031 113.1589965820313 C 172.6670074462891 112.7490005493164 172.3070068359375 112.2089996337891 172.3070068359375 111.6589965820313 C 172.3070068359375 111.2689971923828 172.4970092773438 110.8689956665039 172.8769989013672 110.5289993286133 C 173.0169982910156 110.3989944458008 173.1869964599609 110.2689971923828 173.3869934082031 110.1589965820313 L 220.9969940185547 82.67900085449219 C 221.7119903564453 82.26399993896484 222.6519927978516 82.05649566650391 223.5932464599609 82.05649566650391 C 224.5345001220703 82.05649566650391 225.4770050048828 82.26399993896484 226.1970062255859 82.67900085449219 L 273.8070068359375 110.1589965820313 C 275.2369995117188 110.9889984130859 275.2369995117188 112.338996887207 273.8070068359375 113.1589965820313 L 226.1970062255859 140.6490020751953 C 225.4770050048828 141.0690002441406 224.5370025634766 141.2689971923828 223.5970001220703 141.2689971923828 Z"/>
        </g>
        <path id="Path_349" data-name="Path 349" class="cls-15" d="M221.863,89.211l-37.157,21.453a1.056,1.056,0,0,0,0,2l37.157,21.452a3.832,3.832,0,0,0,3.465,0l37.155-21.452a1.055,1.055,0,0,0,0-2L225.327,89.211A3.83,3.83,0,0,0,221.863,89.211Z"/>
        <path id="Path_350" data-name="Path 350" class="cls-16" d="M262.483,110.664,225.327,89.211A3.541,3.541,0,0,0,223.6,88.8v1.76l38.589,22.279.3-.172A1.055,1.055,0,0,0,262.483,110.664Z"/>
        <path id="Path_351" data-name="Path 351" class="cls-17" d="M223.6,88.8a3.541,3.541,0,0,0-1.732.414l-37.157,21.453a1.056,1.056,0,0,0,0,2l.3.172L223.6,90.557Z"/>
      </g>
      <g id="Group_37" data-name="Group 37">
        <g id="Group_36" data-name="Group 36">
          <path id="Path_352" data-name="Path 352" class="cls-18" d="M211.407,99.937l12.183,7.038,0-37.524-12.186-7.036Z"/>
          <path id="Path_353" data-name="Path 353" class="cls-19" d="M223.59,106.975l12.19-7.038,0-37.523L223.594,69.45Z"/>
          <path id="Path_354" data-name="Path 354" class="cls-20" d="M235.775,62.414,223.59,55.376l-12.182,7.038,12.186,7.036Z"/>
        </g>
        <line id="Line_1" data-name="Line 1" class="cls-21" y1="37.524" x2="0.004" transform="translate(223.59 69.45)"/>
        <line id="Line_2" data-name="Line 2" class="cls-21" x1="12.182" y2="7.036" transform="translate(223.594 62.414)"/>
      </g>
      <g id="Group_39" data-name="Group 39">
        <g id="Group_38" data-name="Group 38">
          <path id="Path_355" data-name="Path 355" class="cls-18" d="M231.722,111.66,243.9,118.7l0-32.832-12.186-7.036Z"/>
          <path id="Path_356" data-name="Path 356" class="cls-19" d="M243.9,118.7l12.19-7.038,0-32.83-12.182,7.036Z"/>
          <path id="Path_357" data-name="Path 357" class="cls-20" d="M256.09,78.83,243.9,71.793l-12.182,7.038,12.186,7.036Z"/>
        </g>
        <line id="Line_3" data-name="Line 3" class="cls-21" y1="32.832" x2="0.004" transform="translate(243.904 85.866)"/>
        <line id="Line_4" data-name="Line 4" class="cls-21" x1="12.182" y2="7.036" transform="translate(243.908 78.83)"/>
      </g>
      <g id="Group_41" data-name="Group 41">
        <g id="Group_40" data-name="Group 40">
          <path id="Path_358" data-name="Path 358" class="cls-18" d="M191.093,111.662l12.183,7.038,0-37.524L191.093,74.14Z"/>
          <path id="Path_359" data-name="Path 359" class="cls-19" d="M203.275,118.7l12.19-7.038,0-37.523-12.182,7.036Z"/>
          <path id="Path_360" data-name="Path 360" class="cls-20" d="M215.461,74.14,203.275,67.1,191.093,74.14l12.186,7.036Z"/>
        </g>
        <line id="Line_5" data-name="Line 5" class="cls-21" y1="37.524" x2="0.004" transform="translate(203.275 81.176)"/>
        <line id="Line_6" data-name="Line 6" class="cls-21" x1="12.182" y2="7.036" transform="translate(203.279 74.14)"/>
      </g>
      <g id="Group_43" data-name="Group 43">
        <g id="Group_42" data-name="Group 42">
          <path id="Path_361" data-name="Path 361" class="cls-18" d="M211.411,123.389l12.182,7.038,0-28.145-12.186-7.036Z"/>
          <path id="Path_362" data-name="Path 362" class="cls-19" d="M223.593,130.427l12.19-7.038,0-28.143L223.6,102.282Z"/>
          <path id="Path_363" data-name="Path 363" class="cls-20" d="M235.779,95.246l-12.186-7.038-12.182,7.038,12.186,7.036Z"/>
        </g>
        <line id="Line_7" data-name="Line 7" class="cls-21" y1="28.145" x2="0.004" transform="translate(223.593 102.282)"/>
        <line id="Line_8" data-name="Line 8" class="cls-21" x1="12.182" y2="7.036" transform="translate(223.598 95.246)"/>
      </g>
      <path id="Path_364" data-name="Path 364" class="cls-22" d="M226.192,42.148a4.45,4.45,0,0,1-2.6.62c-.014,0-.028,0-.042,0h.038v91.759a3.98,3.98,0,0,0,1.734-.414l36.857-21.28c.686-.378,1.016-.711,1.016-1.172V20.791Z"/>
      <path id="Path_365" data-name="Path 365" class="cls-23" d="M223.55,42.767a5.665,5.665,0,0,1-.656-.026l-.041-.007a5.308,5.308,0,0,1-.622-.1c-.132-.032-.26-.078-.389-.12-.08-.026-.163-.044-.241-.075a4.642,4.642,0,0,1-.6-.278l-37.018-21.37V111.66a1.221,1.221,0,0,0,.717,1l37.16,21.455a3.976,3.976,0,0,0,1.68.4c.016,0,.031.006.047.006V42.768Z"/>
    </g>
    <path id="Path_366" data-name="Path 366" class="cls-1" d="M194.311,82a23,23,0,0,0-2.881-.178,5.218,5.218,0,0,1-2.5-.215c-1.045-.34-3.48-2.377-5.558-4.509a29.1,29.1,0,0,1-5.325-8.344c-1.41-3.734-2.589-9.35-3.276-11.559s-1.753-2.7-3.079-2.984c-1.556-.335-2.909.821-2.315,4.1a61.807,61.807,0,0,0,4.17,13.074,30.935,30.935,0,0,0,5.834,8.3,36.115,36.115,0,0,0,6.916,5.368c.72.469,1.138,1,2.406,2.05a10.214,10.214,0,0,0,4.348,2.194c1.362.225,1.889.091,2.054-.164.208-.321-.009-.612-.619-.785a8.376,8.376,0,0,1-2.783-1.124s1.315.448,2.126.646a8.287,8.287,0,0,0,2.206.24c.717-.032,1.286-.932.676-1.122s-1.135-.173-2.332-.484a8.235,8.235,0,0,1-1.829-.705,15.567,15.567,0,0,0,2.459.285,3.47,3.47,0,0,0,1.923-.381c.3-.167.467-.783-.322-.919a12.573,12.573,0,0,1-2.973-.417c-.956-.321-1.587-.681-1.412-.783s.724.127,1.593-.006c.831-.128,1.57-.748,1.462-1.208S195.186,82,194.311,82Z"/>
    <path id="Path_367" data-name="Path 367" class="cls-2" d="M170.7,54.045c-1.638.686-2.42,2.469-1.772,5.69.635,3.159,1.978,8.036,1.978,8.036a10.134,10.134,0,0,0,6.233-2.532s-1.515-6.934-2.107-8.723S172.887,53.128,170.7,54.045Z"/>
  </g>
</svg>
