<svg xmlns="http://www.w3.org/2000/svg" viewBox="0 0 97.958 142.143">
  <defs>
    <style>
      .cls-1 {
        fill: #6b99d1;
        opacity: 0.15;
      }

      .cls-2 {
        opacity: 0.3;
      }

      .cls-3 {
        fill: #57f7e0;
      }

      .cls-4 {
        fill: none;
        stroke: #e9fffb;
        stroke-miterlimit: 10;
      }

      .cls-5, .cls-7 {
        fill: #0b3fa5;
      }

      .cls-5, .cls-6 {
        opacity: 0.8;
      }

      .cls-8 {
        opacity: 0.5;
      }

      .cls-9 {
        opacity: 0.7;
      }

      .cls-10 {
        opacity: 0.9;
      }

      .cls-11 {
        fill: #ffa8a7;
      }

      .cls-12 {
        fill: #2d2979;
      }

      .cls-13 {
        fill: #291d51;
      }

      .cls-14 {
        fill: #543354;
      }

      .cls-15 {
        fill: #7fa8e6;
      }

      .cls-16 {
        fill: #597bc6;
      }

      .cls-17 {
        fill: #f28f8f;
      }

      .cls-18 {
        fill: #f5fbfb;
      }
    </style>
  </defs>
  <g id="Group_111" data-name="Group 111" transform="translate(-495.721 -29.891)">
    <path id="Path_381" data-name="Path 381" class="cls-1" d="M569.944,162.4,577,158.331c4.783-2.762,11.389-3.425,14.754-1.482s2.215,5.756-2.567,8.518l-7.052,4.071c-4.783,2.761-11.389,3.425-14.754,1.482S565.161,165.164,569.944,162.4Z"/>
    <g id="Group_107" data-name="Group 107">
      <g id="Group_61" data-name="Group 61" class="cls-2">
        <path id="Path_382" data-name="Path 382" class="cls-3" d="M498.819,55.9l43.548-25.142c1.436-.829,2.6-.157,2.6,1.5V63.782a5.741,5.741,0,0,1-2.6,4.5L498.819,93.425c-1.434.828-2.6.157-2.6-1.5V60.4A5.747,5.747,0,0,1,498.819,55.9Z"/>
        <path id="Path_383" data-name="Path 383" class="cls-4" d="M498.819,55.9l43.548-25.142c1.436-.829,2.6-.157,2.6,1.5V63.782a5.741,5.741,0,0,1-2.6,4.5L498.819,93.425c-1.434.828-2.6.157-2.6-1.5V60.4A5.747,5.747,0,0,1,498.819,55.9Z"/>
        <path id="Path_384" data-name="Path 384" class="cls-5" d="M501.582,60.613l17.712-10.226c.718-.414,1.3-.079,1.3.75v.073a2.869,2.869,0,0,1-1.3,2.25L501.582,63.686c-.718.414-1.3.078-1.3-.751v-.072A2.87,2.87,0,0,1,501.582,60.613Z"/>
        <path id="Path_385" data-name="Path 385" class="cls-5" d="M524.342,47.474,539.6,38.661c.718-.414,1.3-.078,1.3.75v.074a2.871,2.871,0,0,1-1.3,2.25l-15.262,8.812c-.718.414-1.3.079-1.3-.75v-.073A2.869,2.869,0,0,1,524.342,47.474Z"/>
        <g id="Group_50" data-name="Group 50" class="cls-6">
          <g id="Group_49" data-name="Group 49">
            <g id="Group_47" data-name="Group 47">
              <path id="Path_386" data-name="Path 386" class="cls-7" d="M501.582,75.069l17.712-10.226c.718-.414,1.3-.079,1.3.75v.074a2.872,2.872,0,0,1-1.3,2.25L501.582,78.142c-.718.414-1.3.078-1.3-.75v-.073A2.87,2.87,0,0,1,501.582,75.069Z"/>
            </g>
            <g id="Group_48" data-name="Group 48">
              <path id="Path_387" data-name="Path 387" class="cls-7" d="M524.342,61.93,539.6,53.117c.718-.414,1.3-.078,1.3.75v.074a2.873,2.873,0,0,1-1.3,2.25L524.342,65c-.718.414-1.3.079-1.3-.75V64.18A2.87,2.87,0,0,1,524.342,61.93Z"/>
            </g>
          </g>
        </g>
        <g id="Group_55" data-name="Group 55" class="cls-6">
          <g id="Group_54" data-name="Group 54">
            <g id="Group_51" data-name="Group 51">
              <path id="Path_388" data-name="Path 388" class="cls-7" d="M501.582,67.841l9.589-5.536c.717-.414,1.3-.078,1.3.75v.074a2.873,2.873,0,0,1-1.3,2.25l-9.588,5.535c-.718.414-1.3.079-1.3-.75v-.073A2.871,2.871,0,0,1,501.582,67.841Z"/>
            </g>
            <g id="Group_52" data-name="Group 52">
              <path id="Path_389" data-name="Path 389" class="cls-7" d="M515.476,59.819l8.132-4.723c.717-.416,1.3-.081,1.3.747v.074a2.88,2.88,0,0,1-1.3,2.253l-8.132,4.722c-.717.416-1.3.082-1.3-.747v-.073A2.88,2.88,0,0,1,515.476,59.819Z"/>
            </g>
            <g id="Group_53" data-name="Group 53">
              <path id="Path_390" data-name="Path 390" class="cls-7" d="M528.22,52.427l11.383-6.54c.718-.413,1.3-.077,1.3.752v.074a2.864,2.864,0,0,1-1.3,2.247L528.22,55.5c-.719.413-1.3.076-1.3-.753v-.073A2.863,2.863,0,0,1,528.22,52.427Z"/>
            </g>
          </g>
        </g>
        <g id="Group_60" data-name="Group 60" class="cls-6">
          <g id="Group_59" data-name="Group 59">
            <g id="Group_56" data-name="Group 56">
              <path id="Path_391" data-name="Path 391" class="cls-7" d="M501.582,82.377l15.448-8.9c.718-.414,1.3-.077,1.3.751V74.3a2.869,2.869,0,0,1-1.3,2.249l-15.448,8.9c-.718.414-1.3.077-1.3-.751v-.073A2.869,2.869,0,0,1,501.582,82.377Z"/>
            </g>
            <g id="Group_57" data-name="Group 57">
              <path id="Path_392" data-name="Path 392" class="cls-7" d="M521.336,70.99l8.134-4.723c.716-.416,1.3-.082,1.3.747v.074a2.882,2.882,0,0,1-1.3,2.253l-8.134,4.722c-.717.416-1.3.082-1.3-.747v-.073A2.879,2.879,0,0,1,521.336,70.99Z"/>
            </g>
            <g id="Group_58" data-name="Group 58">
              <path id="Path_393" data-name="Path 393" class="cls-7" d="M534.08,63.6l5.523-3.176c.718-.413,1.3-.076,1.3.752v.074a2.866,2.866,0,0,1-1.3,2.248L534.08,66.67c-.718.413-1.3.077-1.3-.752v-.073A2.864,2.864,0,0,1,534.08,63.6Z"/>
            </g>
          </g>
        </g>
      </g>
      <g id="Group_76" data-name="Group 76" class="cls-8">
        <path id="Path_394" data-name="Path 394" class="cls-3" d="M506.944,60.592l43.548-25.143c1.435-.828,2.6-.157,2.6,1.5V68.473a5.742,5.742,0,0,1-2.6,4.5L506.944,98.116c-1.435.828-2.6.157-2.6-1.5V65.092A5.741,5.741,0,0,1,506.944,60.592Z"/>
        <path id="Path_395" data-name="Path 395" class="cls-4" d="M506.944,60.592l43.548-25.143c1.435-.828,2.6-.157,2.6,1.5V68.473a5.742,5.742,0,0,1-2.6,4.5L506.944,98.116c-1.435.828-2.6.157-2.6-1.5V65.092A5.741,5.741,0,0,1,506.944,60.592Z"/>
        <path id="Path_396" data-name="Path 396" class="cls-5" d="M509.706,65.3l17.712-10.226c.718-.414,1.3-.078,1.3.75V55.9a2.87,2.87,0,0,1-1.3,2.25L509.706,68.377c-.718.414-1.3.078-1.3-.75v-.074A2.87,2.87,0,0,1,509.706,65.3Z"/>
        <path id="Path_397" data-name="Path 397" class="cls-5" d="M532.466,52.165l15.263-8.813c.718-.414,1.3-.079,1.3.75v.073a2.869,2.869,0,0,1-1.3,2.25l-15.263,8.813c-.717.414-1.3.078-1.3-.75v-.073A2.871,2.871,0,0,1,532.466,52.165Z"/>
        <g id="Group_65" data-name="Group 65" class="cls-6">
          <g id="Group_64" data-name="Group 64">
            <g id="Group_62" data-name="Group 62">
              <path id="Path_398" data-name="Path 398" class="cls-7" d="M509.706,79.759l17.712-10.226c.718-.414,1.3-.078,1.3.75v.074a2.871,2.871,0,0,1-1.3,2.25L509.706,82.833c-.718.414-1.3.078-1.3-.75v-.074A2.872,2.872,0,0,1,509.706,79.759Z"/>
            </g>
            <g id="Group_63" data-name="Group 63">
              <path id="Path_399" data-name="Path 399" class="cls-7" d="M532.466,66.621l15.263-8.813c.718-.415,1.3-.079,1.3.75v.073a2.87,2.87,0,0,1-1.3,2.25l-15.263,8.813c-.717.414-1.3.078-1.3-.75v-.073A2.871,2.871,0,0,1,532.466,66.621Z"/>
            </g>
          </g>
        </g>
        <g id="Group_70" data-name="Group 70" class="cls-6">
          <g id="Group_69" data-name="Group 69">
            <g id="Group_66" data-name="Group 66">
              <path id="Path_400" data-name="Path 400" class="cls-7" d="M509.706,72.532,519.295,67c.718-.415,1.3-.079,1.3.75v.073a2.869,2.869,0,0,1-1.3,2.25l-9.589,5.536c-.718.414-1.3.078-1.3-.75v-.073A2.869,2.869,0,0,1,509.706,72.532Z"/>
            </g>
            <g id="Group_67" data-name="Group 67">
              <path id="Path_401" data-name="Path 401" class="cls-7" d="M523.6,64.509l8.133-4.722c.717-.416,1.3-.082,1.3.747v.073a2.879,2.879,0,0,1-1.3,2.253L523.6,67.583c-.716.415-1.3.081-1.3-.748v-.072A2.882,2.882,0,0,1,523.6,64.509Z"/>
            </g>
            <g id="Group_68" data-name="Group 68">
              <path id="Path_402" data-name="Path 402" class="cls-7" d="M536.344,57.117l11.383-6.54c.719-.413,1.3-.075,1.3.753V51.4a2.863,2.863,0,0,1-1.3,2.248L536.344,60.19c-.718.413-1.3.076-1.3-.752v-.073A2.865,2.865,0,0,1,536.344,57.117Z"/>
            </g>
          </g>
        </g>
        <g id="Group_75" data-name="Group 75" class="cls-6">
          <g id="Group_74" data-name="Group 74">
            <g id="Group_71" data-name="Group 71">
              <path id="Path_403" data-name="Path 403" class="cls-7" d="M509.707,87.068l15.448-8.9c.718-.414,1.3-.078,1.3.751v.073a2.866,2.866,0,0,1-1.3,2.249l-15.448,8.9c-.718.413-1.3.077-1.3-.751v-.074A2.866,2.866,0,0,1,509.707,87.068Z"/>
            </g>
            <g id="Group_72" data-name="Group 72">
              <path id="Path_404" data-name="Path 404" class="cls-7" d="M529.461,75.68l8.134-4.722c.715-.416,1.3-.082,1.3.747v.073a2.883,2.883,0,0,1-1.3,2.253l-8.133,4.722c-.717.416-1.3.082-1.3-.747v-.072A2.881,2.881,0,0,1,529.461,75.68Z"/>
            </g>
            <g id="Group_73" data-name="Group 73">
              <path id="Path_405" data-name="Path 405" class="cls-7" d="M542.205,68.288l5.523-3.176c.718-.412,1.3-.075,1.3.753v.074a2.864,2.864,0,0,1-1.3,2.247l-5.523,3.175c-.719.413-1.3.076-1.3-.752v-.073A2.863,2.863,0,0,1,542.205,68.288Z"/>
            </g>
          </g>
        </g>
      </g>
      <g id="Group_91" data-name="Group 91" class="cls-9">
        <path id="Path_406" data-name="Path 406" class="cls-3" d="M515.068,65.282,558.617,40.14c1.435-.829,2.6-.157,2.6,1.5V73.164a5.744,5.744,0,0,1-2.6,4.5l-43.549,25.142c-1.434.828-2.6.157-2.6-1.5V69.782A5.746,5.746,0,0,1,515.068,65.282Z"/>
        <path id="Path_407" data-name="Path 407" class="cls-4" d="M515.068,65.282,558.617,40.14c1.435-.829,2.6-.157,2.6,1.5V73.164a5.744,5.744,0,0,1-2.6,4.5l-43.549,25.142c-1.434.828-2.6.157-2.6-1.5V69.782A5.746,5.746,0,0,1,515.068,65.282Z"/>
        <path id="Path_408" data-name="Path 408" class="cls-5" d="M517.831,69.994l17.712-10.226c.718-.414,1.3-.078,1.3.75v.073a2.869,2.869,0,0,1-1.3,2.25L517.831,73.067c-.718.414-1.3.078-1.3-.75v-.073A2.87,2.87,0,0,1,517.831,69.994Z"/>
        <path id="Path_409" data-name="Path 409" class="cls-5" d="M540.591,56.855l15.262-8.813c.718-.414,1.3-.079,1.3.75v.074a2.871,2.871,0,0,1-1.3,2.25l-15.262,8.812c-.718.414-1.3.079-1.3-.75V59.1A2.872,2.872,0,0,1,540.591,56.855Z"/>
        <g id="Group_80" data-name="Group 80" class="cls-6">
          <g id="Group_79" data-name="Group 79">
            <g id="Group_77" data-name="Group 77">
              <path id="Path_410" data-name="Path 410" class="cls-7" d="M517.831,84.45l17.712-10.226c.718-.414,1.3-.079,1.3.75v.073a2.869,2.869,0,0,1-1.3,2.25L517.831,87.523c-.718.414-1.3.078-1.3-.75V86.7A2.87,2.87,0,0,1,517.831,84.45Z"/>
            </g>
            <g id="Group_78" data-name="Group 78">
              <path id="Path_411" data-name="Path 411" class="cls-7" d="M540.591,71.311,555.853,62.5c.718-.414,1.3-.079,1.3.75v.074a2.871,2.871,0,0,1-1.3,2.25l-15.262,8.812c-.718.414-1.3.079-1.3-.75v-.073A2.872,2.872,0,0,1,540.591,71.311Z"/>
            </g>
          </g>
        </g>
        <g id="Group_85" data-name="Group 85" class="cls-6">
          <g id="Group_84" data-name="Group 84">
            <g id="Group_81" data-name="Group 81">
              <path id="Path_412" data-name="Path 412" class="cls-7" d="M517.831,77.222l9.589-5.536c.717-.414,1.3-.079,1.3.75v.074a2.873,2.873,0,0,1-1.3,2.25l-9.589,5.535c-.718.414-1.3.078-1.3-.75v-.073A2.87,2.87,0,0,1,517.831,77.222Z"/>
            </g>
            <g id="Group_82" data-name="Group 82">
              <path id="Path_413" data-name="Path 413" class="cls-7" d="M531.725,69.2l8.133-4.723c.716-.416,1.3-.082,1.3.747V65.3a2.88,2.88,0,0,1-1.3,2.253l-8.133,4.722c-.717.416-1.3.082-1.3-.747v-.073A2.879,2.879,0,0,1,531.725,69.2Z"/>
            </g>
            <g id="Group_83" data-name="Group 83">
              <path id="Path_414" data-name="Path 414" class="cls-7" d="M544.469,61.808l11.383-6.54c.718-.413,1.3-.076,1.3.752v.074a2.864,2.864,0,0,1-1.3,2.247l-11.383,6.54c-.719.413-1.3.076-1.3-.753v-.073A2.863,2.863,0,0,1,544.469,61.808Z"/>
            </g>
          </g>
        </g>
        <g id="Group_90" data-name="Group 90" class="cls-6">
          <g id="Group_89" data-name="Group 89">
            <g id="Group_86" data-name="Group 86">
              <path id="Path_415" data-name="Path 415" class="cls-7" d="M517.831,91.758l15.449-8.9c.718-.414,1.3-.078,1.3.751v.074a2.867,2.867,0,0,1-1.3,2.249l-15.448,8.9c-.718.414-1.3.078-1.3-.751v-.073A2.868,2.868,0,0,1,517.831,91.758Z"/>
            </g>
            <g id="Group_87" data-name="Group 87">
              <path id="Path_416" data-name="Path 416" class="cls-7" d="M537.585,80.371l8.134-4.723c.716-.416,1.3-.082,1.3.747v.074a2.882,2.882,0,0,1-1.3,2.253l-8.134,4.722c-.716.416-1.3.081-1.3-.747v-.073A2.88,2.88,0,0,1,537.585,80.371Z"/>
            </g>
            <g id="Group_88" data-name="Group 88">
              <path id="Path_417" data-name="Path 417" class="cls-7" d="M550.329,72.979l5.523-3.176c.718-.413,1.3-.076,1.3.752v.074a2.865,2.865,0,0,1-1.3,2.248l-5.523,3.175c-.718.412-1.3.075-1.3-.753v-.073A2.864,2.864,0,0,1,550.329,72.979Z"/>
            </g>
          </g>
        </g>
      </g>
      <g id="Group_106" data-name="Group 106" class="cls-10">
        <path id="Path_418" data-name="Path 418" class="cls-3" d="M523.193,69.973l43.548-25.142c1.435-.829,2.6-.158,2.6,1.5V77.854a5.741,5.741,0,0,1-2.6,4.5L523.193,107.5c-1.434.828-2.6.156-2.6-1.5V74.473A5.741,5.741,0,0,1,523.193,69.973Z"/>
        <path id="Path_419" data-name="Path 419" class="cls-4" d="M523.193,69.973l43.548-25.142c1.435-.829,2.6-.158,2.6,1.5V77.854a5.741,5.741,0,0,1-2.6,4.5L523.193,107.5c-1.434.828-2.6.156-2.6-1.5V74.473A5.741,5.741,0,0,1,523.193,69.973Z"/>
        <path id="Path_420" data-name="Path 420" class="cls-5" d="M525.955,74.685l17.713-10.227c.717-.414,1.3-.078,1.3.75v.074a2.873,2.873,0,0,1-1.3,2.25L525.955,77.757c-.717.414-1.3.079-1.3-.75v-.072A2.871,2.871,0,0,1,525.955,74.685Z"/>
        <path id="Path_421" data-name="Path 421" class="cls-5" d="M548.715,61.546l15.263-8.814c.718-.414,1.3-.078,1.3.75v.074a2.869,2.869,0,0,1-1.3,2.25l-15.262,8.813c-.718.414-1.3.078-1.3-.75V63.8A2.871,2.871,0,0,1,548.715,61.546Z"/>
        <g id="Group_95" data-name="Group 95" class="cls-6">
          <g id="Group_94" data-name="Group 94">
            <g id="Group_92" data-name="Group 92">
              <path id="Path_422" data-name="Path 422" class="cls-7" d="M525.955,89.141l17.713-10.227c.717-.414,1.3-.078,1.3.75v.074a2.873,2.873,0,0,1-1.3,2.25L525.955,92.213c-.717.415-1.3.079-1.3-.75v-.072A2.871,2.871,0,0,1,525.955,89.141Z"/>
            </g>
            <g id="Group_93" data-name="Group 93">
              <path id="Path_423" data-name="Path 423" class="cls-7" d="M548.715,76l15.263-8.813c.718-.415,1.3-.079,1.3.75v.073a2.869,2.869,0,0,1-1.3,2.25l-15.262,8.813c-.718.414-1.3.078-1.3-.75v-.073A2.871,2.871,0,0,1,548.715,76Z"/>
            </g>
          </g>
        </g>
        <g id="Group_100" data-name="Group 100" class="cls-6">
          <g id="Group_99" data-name="Group 99">
            <g id="Group_96" data-name="Group 96">
              <path id="Path_424" data-name="Path 424" class="cls-7" d="M525.955,81.913l9.589-5.536c.718-.415,1.3-.079,1.3.75V77.2a2.87,2.87,0,0,1-1.3,2.25l-9.589,5.536c-.717.414-1.3.078-1.3-.751v-.072A2.871,2.871,0,0,1,525.955,81.913Z"/>
            </g>
            <g id="Group_97" data-name="Group 97">
              <path id="Path_425" data-name="Path 425" class="cls-7" d="M539.849,73.89l8.133-4.722c.717-.416,1.3-.082,1.3.747v.073a2.88,2.88,0,0,1-1.3,2.254l-8.133,4.721c-.716.416-1.3.082-1.3-.747v-.072A2.882,2.882,0,0,1,539.849,73.89Z"/>
            </g>
            <g id="Group_98" data-name="Group 98">
              <path id="Path_426" data-name="Path 426" class="cls-7" d="M552.594,66.5l11.383-6.54c.718-.413,1.3-.076,1.3.753v.074a2.864,2.864,0,0,1-1.3,2.247l-11.383,6.54c-.719.412-1.3.075-1.3-.753v-.073A2.863,2.863,0,0,1,552.594,66.5Z"/>
            </g>
          </g>
        </g>
        <g id="Group_105" data-name="Group 105" class="cls-6">
          <g id="Group_104" data-name="Group 104">
            <g id="Group_101" data-name="Group 101">
              <path id="Path_427" data-name="Path 427" class="cls-7" d="M525.956,96.449l15.448-8.9c.718-.413,1.3-.077,1.3.751v.074a2.866,2.866,0,0,1-1.3,2.249l-15.448,8.9c-.718.413-1.3.077-1.3-.752V98.7A2.866,2.866,0,0,1,525.956,96.449Z"/>
            </g>
            <g id="Group_102" data-name="Group 102">
              <path id="Path_428" data-name="Path 428" class="cls-7" d="M545.71,85.061l8.134-4.722c.716-.416,1.3-.082,1.3.746v.074a2.882,2.882,0,0,1-1.3,2.254l-8.134,4.721c-.717.416-1.3.082-1.3-.746v-.073A2.88,2.88,0,0,1,545.71,85.061Z"/>
            </g>
            <g id="Group_103" data-name="Group 103">
              <path id="Path_429" data-name="Path 429" class="cls-7" d="M558.454,77.669l5.523-3.175c.718-.413,1.3-.077,1.3.752v.074a2.864,2.864,0,0,1-1.3,2.247l-5.523,3.175c-.719.413-1.3.076-1.3-.752v-.073A2.863,2.863,0,0,1,558.454,77.669Z"/>
            </g>
          </g>
        </g>
      </g>
    </g>
    <g id="Group_110" data-name="Group 110">
      <path id="Path_430" data-name="Path 430" class="cls-11" d="M580.038,159.381c.7-.755,1.407-4.205,1.407-4.205a7.181,7.181,0,0,0,.326-1.83c-.058-.54-.613-4.2-.613-4.2l3.576-.348s-.2,3.011-.215,3.978a10.226,10.226,0,0,0,.428,3.251c-.176.511-2.143,4.065-2.14,4.077s-2.123.544-2.123.544l-1.031-.426Z"/>
      <path id="Path_431" data-name="Path 431" class="cls-12" d="M579.493,161.372c-.494-.114-2.1-1.224-1.117-1.725a2.046,2.046,0,0,1,1.534-.167s-.208.389.126.357c.64-.06,1.134-2.867,1.134-3.81l1.779.643-.71,3.877-.819.529-1.365.3Z"/>
      <path id="Path_432" data-name="Path 432" class="cls-13" d="M581.841,157.423c-.039,2.211-.407,2.509-.649,3a1.538,1.538,0,0,1-1.5.863c.7.352,4.2.267,4.924-.264.4-.3.139-1.106.128-2.079s.295-2.066.275-2.589S581.841,157.423,581.841,157.423Z"/>
      <path id="Path_433" data-name="Path 433" class="cls-12" d="M583.028,154.13a2.08,2.08,0,0,0-1.868,2.011c-.055.929.887,1.037,1.618,2.817a10.975,10.975,0,0,1,.508,3.669.444.444,0,0,0,.617-.025s-.007-1.057.064-2.079a16.5,16.5,0,0,1,.267-2.124c.284-.961.867-1.4.784-2.368a2.948,2.948,0,0,0-.566-1.52A2.152,2.152,0,0,0,583.028,154.13Z"/>
      <g id="Group_108" data-name="Group 108">
        <path id="Path_434" data-name="Path 434" class="cls-13" d="M575.982,166.8s.321.562,2.053-.166a4.143,4.143,0,0,0,1.44-.9,15.968,15.968,0,0,1,.672-1.9s-.342-2.267-1.415-1.392S575.982,166.8,575.982,166.8Z"/>
        <path id="Path_435" data-name="Path 435" class="cls-11" d="M579.989,154.523c.2,1.272.3,2.159.442,2.952a3.257,3.257,0,0,0,.522,1.354,3.79,3.79,0,0,1,.752,1.642,5.2,5.2,0,0,0-3.108,1.709c-1.046,1.418-.988,2.836-1.959,3.071s-2.593-.881-2.593-.881a1.7,1.7,0,0,0,1.43-1.33c.4-1.289,1.449-4.085,1.54-4.806a8.738,8.738,0,0,0-.774-3.074Z"/>
        <path id="Path_436" data-name="Path 436" class="cls-12" d="M580.339,158.885c-.9.055-2.254,1.475-2.712,2.513a7.649,7.649,0,0,1-1.8,2.825c-.584.327-1.616-.149-2.5-.155s-1.5.4-1.554,1.045l3.667,1.737c.846.4,1.56.414,2.224-1.343s1.279-3.273,2.117-2.041a9.586,9.586,0,0,1,1.037,3.2s.34.271.737-.162a8.415,8.415,0,0,1-.208-1.848c-.034-2.356.811-2.928.6-3.857C581.643,159.434,581.311,158.824,580.339,158.885Z"/>
      </g>
      <g id="Group_109" data-name="Group 109">
        <path id="Path_437" data-name="Path 437" class="cls-14" d="M570.469,66.754s-2.34-1.359-2.106-3.387,3.34-7,8.878-4.588C582.435,59.908,570.469,66.754,570.469,66.754Z"/>
        <path id="Path_438" data-name="Path 438" class="cls-11" d="M583.733,75.733c1.592.459,2.5,2.223,3.9,5.994s2.855,9.269,2.672,10.722c-.451,3.554-2.659,6.589-6.464,9.108l-1.7-3.112s3.733-3,4.09-6.557c.2-2-2.39-8.791-2.39-8.973S583.733,75.733,583.733,75.733Z"/>
        <path id="Path_439" data-name="Path 439" class="cls-15" d="M585.359,137.107a37.593,37.593,0,0,1-.433-5.8s.623-6.028,1.125-11.2c.739-7.624,2.193-9.352,1.357-13.952-.724-3.982-3.378-7.073-4.561-9.995l-12.444.981s-1.08,3.528-2.478,10.553-.872,16.556.189,26.366c.308,2.837,2.1,6.644,4.116,11.461,1.846,4.409,4.641,11.666,4.641,11.666,1.922,1.117,3.465-.8,3.465-.8s-1.43-9.556-2.01-12.791c-.982-5.493-3.548-8.175-3.548-8.175s.58-4,.989-7.545c.442-3.841,1.738-10.217,1.738-10.217s.061,9.867.26,12.713a63.194,63.194,0,0,0,1.295,8.714c.818,4.562,2.621,13.585,2.621,13.585a3.617,3.617,0,0,0,2.866-.1S585.878,141.087,585.359,137.107Z"/>
        <path id="Path_440" data-name="Path 440" class="cls-16" d="M584.926,110.684c-2.463,2.54-6.839,3.074-6.839,3.074l-.582,3.9c-.168,3.2.247,6.975.167,10.629,0,0,.891-9.538,2.077-11.117S584.13,112.874,584.926,110.684Z"/>
        <path id="Path_441" data-name="Path 441" class="cls-11" d="M583,75.66c-2.649-.16-2.9.279-3.116-.661-.076-.336-.224-2.669-.224-2.669a8.071,8.071,0,0,0,.662-.978,6.782,6.782,0,0,0-2.851-12.537c-3.515-.366-6.1,2.1-6.792,5.495a15.033,15.033,0,0,0,.284,7.835c.588,1.552,1.133,2.638,2.537,2.582a8.513,8.513,0,0,0,1.384-.244,12.7,12.7,0,0,1,.077,1.945c-.037.677.078,1.018-1.25,1.836s2.008,2.5,4.186,2.332,4.627-1.479,5.3-2.888C583.941,76.137,584.244,75.735,583,75.66Z"/>
        <path id="Path_442" data-name="Path 442" class="cls-17" d="M581.1,70.781l-2.286.122-2.489-.041-.768-.895s-.161,2.872-.943,3.572a6.779,6.779,0,0,1-1.8,1.1,2.053,2.053,0,0,0,.682.091,8.513,8.513,0,0,0,1.384-.244,12.7,12.7,0,0,1,.077,1.945c-.037.677.078,1.018-1.25,1.836s2.008,2.5,4.186,2.332,4.627-1.479,5.3-2.888c.749-1.571,1.052-1.973-.2-2.048-2.649-.16-2.9.279-3.116-.661-.076-.336-.224-2.669-.224-2.669a8.071,8.071,0,0,0,.662-.978A6.991,6.991,0,0,0,581.1,70.781Z"/>
        <path id="Path_443" data-name="Path 443" class="cls-14" d="M581.059,71.581a7.388,7.388,0,0,0,2.47-5.291,6.8,6.8,0,0,0-6.062-7.475,5.619,5.619,0,0,0-6.179,3.632,1.074,1.074,0,0,0,.822.526,1.723,1.723,0,0,0,.37,1.413,3.428,3.428,0,0,1,.843,1.94,12.99,12.99,0,0,0,.124,2.262,1.136,1.136,0,0,0,1.162.79s.062-1.41.2-2.758c.419-.951,2.117-1.162,2.431.062a3.336,3.336,0,0,1-.385,2.6c-.3.6-.821.914-1.3.681a2.521,2.521,0,0,0,2.1,2.848c1.476.415,1.615-.13,2.372-.523A6.616,6.616,0,0,0,581.059,71.581Z"/>
        <path id="Path_444" data-name="Path 444" class="cls-18" d="M580.365,75.6c.488.609.544,1.378-1.348,1.854a5.97,5.97,0,0,1-4.138-.318,27.808,27.808,0,0,0-4.282,2.268c-4.229,2.937-5.249,8.037-.985,9.794.26,1.916.577,6.85.658,7.972,3.607,2.519,10.934,1.66,12.577-1.012A21.576,21.576,0,0,1,583.1,93.5c1.721-6.381,3.066-8.076,2.586-12.889-.276-2.754-.487-4.138-1.951-4.874A12.624,12.624,0,0,0,580.365,75.6Z"/>
        <path id="Path_445" data-name="Path 445" class="cls-14" d="M575.56,69.967V86.7s1.735,1.195,4.76-.25,3.246-2.326,3.246-3.928V65.47s-3.451,4.09-5.933,4.934C575.708,71.078,575.56,69.967,575.56,69.967Z"/>
        <path id="Path_446" data-name="Path 446" class="cls-11" d="M544.673,96.159a21.485,21.485,0,0,1,2.765.78,9.116,9.116,0,0,0,2.646.884c1,.161,2.559-.355,5.25-1.627a29.018,29.018,0,0,0,7.879-5.925,68.422,68.422,0,0,0,6.881-9.824c1.162-2.124,2.641-2.662,3.93-2.241,1.536.5,1.724,2.03.02,4.9a54.463,54.463,0,0,1-7.877,10.314,29.54,29.54,0,0,1-8.21,5.791,25.3,25.3,0,0,1-6.91,2.4c-.839.187-1.415.534-2.972,1.079a10.209,10.209,0,0,1-4.84.535c-1.354-.265-1.8-.575-1.867-.871-.083-.373.222-.57.855-.519a8.4,8.4,0,0,0,3-.08s-1.389-.04-2.218-.138a8.281,8.281,0,0,1-2.151-.547c-.66-.28-.878-1.322-.241-1.287s1.125.235,2.355.362a8.275,8.275,0,0,0,1.96-.021,15.6,15.6,0,0,1-2.4-.593,3.483,3.483,0,0,1-1.669-1.028c-.226-.264-.164-.9.623-.75a12.542,12.542,0,0,0,2.931.649c1.009.033,1.725-.084,1.6-.24s-.723-.134-1.49-.563c-.734-.409-1.209-1.249-.948-1.642S543.853,95.855,544.673,96.159Z"/>
      </g>
    </g>
  </g>
</svg>
