<svg xmlns="http://www.w3.org/2000/svg" viewBox="0 0 62.948 103.6">
  <defs>
    <style>
      .cls-1 {
        fill: #e9fffb;
        opacity: 0.2;
      }

      .cls-2 {
        fill: #6b99d1;
        opacity: 0.15;
      }

      .cls-3 {
        fill: none;
        stroke: #eef7ff;
        stroke-miterlimit: 10;
      }

      .cls-4 {
        fill: #c8e2ff;
      }

      .cls-5 {
        fill: #a5cbfa;
      }

      .cls-6 {
        fill: #dceeff;
      }

      .cls-7 {
        fill: #031f60;
      }

      .cls-8 {
        fill: #1e3779;
      }

      .cls-9 {
        fill: #344593;
      }
    </style>
  </defs>
  <g id="Group_23" data-name="Group 23" transform="translate(-53.627 -135.156)">
    <path id="Path_273" data-name="Path 273" class="cls-1" d="M82.5,192.062,55.2,207.824c-1.435.828-1.435,2.172,0,3l27.3,15.762a5.745,5.745,0,0,0,5.2,0L115,210.824c1.435-.828,1.435-2.172,0-3L87.7,192.062A5.745,5.745,0,0,0,82.5,192.062Z"/>
    <path id="Path_274" data-name="Path 274" class="cls-2" d="M82.5,203.611,55.2,219.373c-1.435.828-1.435,2.171,0,3l27.3,15.762a5.745,5.745,0,0,0,5.2,0L115,222.373c1.435-.829,1.435-2.172,0-3L87.7,203.611A5.745,5.745,0,0,0,82.5,203.611Z"/>
    <path id="Path_275" data-name="Path 275" class="cls-3" d="M82.5,192.062,55.2,207.824c-1.435.828-1.435,2.172,0,3l27.3,15.762a5.745,5.745,0,0,0,5.2,0L115,210.824c1.435-.828,1.435-2.172,0-3L87.7,192.062A5.745,5.745,0,0,0,82.5,192.062Z"/>
    <g id="Group_22" data-name="Group 22">
      <path id="Path_276" data-name="Path 276" class="cls-4" d="M116.077,153.035v35.41a5.744,5.744,0,0,1-2.6,4.5L87.7,207.825a5.373,5.373,0,0,1-2.6.62,5.305,5.305,0,0,1-2.59-.62l-25.78-14.88a5.744,5.744,0,0,1-2.6-4.5v-35.41Z"/>
      <path id="Path_277" data-name="Path 277" class="cls-5" d="M85.1,153.035v55.41a5.305,5.305,0,0,1-2.59-.62l-25.78-14.88a5.744,5.744,0,0,1-2.6-4.5v-35.41Z"/>
      <path id="Path_278" data-name="Path 278" class="cls-6" d="M82.5,135.777,55.2,151.539c-1.435.828-1.435,2.171,0,3L82.5,170.3a5.745,5.745,0,0,0,5.2,0L115,154.539c1.435-.829,1.435-2.172,0-3L87.7,135.777A5.745,5.745,0,0,0,82.5,135.777Z"/>
      <g id="Group_19" data-name="Group 19">
        <path id="Path_279" data-name="Path 279" class="cls-7" d="M95.117,178.645v10.38c0,1.11.78,1.56,1.73,1.01l.3-.18,8.7-5.02a3.512,3.512,0,0,0,1.23-1.3l-11.44-6.6A3.469,3.469,0,0,0,95.117,178.645Z"/>
        <path id="Path_280" data-name="Path 280" class="cls-8" d="M107.577,171.795l-.01-.34c.01-1.1-.77-1.55-1.73-1l-.16.09-8.82,5.09a3.486,3.486,0,0,0-1.22,1.3l11.44,6.6a3.427,3.427,0,0,0,.5-1.69Z"/>
        <path id="Path_281" data-name="Path 281" class="cls-9" d="M105.687,180.555a3.376,3.376,0,0,1-.51,1.7,3.563,3.563,0,0,1-1.22,1.3l-8.71,5.02-.13.08v-10.01a3.928,3.928,0,0,1,1.74-3.01l8.82-5.09Z"/>
      </g>
      <g id="Group_20" data-name="Group 20">
        <path id="Path_282" data-name="Path 282" class="cls-7" d="M75.077,178.645v10.38c0,1.11-.78,1.56-1.73,1.01l-.3-.18-8.7-5.02a3.512,3.512,0,0,1-1.23-1.3l11.44-6.6A3.469,3.469,0,0,1,75.077,178.645Z"/>
        <path id="Path_283" data-name="Path 283" class="cls-8" d="M62.617,171.795l.01-.34c-.01-1.1.77-1.55,1.73-1l.16.09,8.82,5.09a3.486,3.486,0,0,1,1.22,1.3l-11.44,6.6a3.427,3.427,0,0,1-.5-1.69Z"/>
        <path id="Path_284" data-name="Path 284" class="cls-9" d="M64.507,180.555a3.376,3.376,0,0,0,.51,1.7,3.563,3.563,0,0,0,1.22,1.3l8.71,5.02.13.08v-10.01a3.928,3.928,0,0,0-1.74-3.01l-8.82-5.09Z"/>
      </g>
      <path id="Path_285" data-name="Path 285" class="cls-6" d="M82.5,135.777,55.2,151.539c-1.435.828-1.435,2.171,0,3L82.5,170.3a5.745,5.745,0,0,0,5.2,0L115,154.539c1.435-.829,1.435-2.172,0-3L87.7,135.777A5.745,5.745,0,0,0,82.5,135.777Z"/>
      <g id="Group_21" data-name="Group 21">
        <path id="Path_286" data-name="Path 286" class="cls-8" d="M95.817,154.035l-.29.17-8.7,5.03a3.421,3.421,0,0,1-1.72.41,3.524,3.524,0,0,1-1.74-.41l-8.7-5.03-.3-.17a1.056,1.056,0,0,1,.01-2l8.99-5.19a3.524,3.524,0,0,1,1.74-.41,3.6,3.6,0,0,1,1.73.41l8.98,5.19A1.054,1.054,0,0,1,95.817,154.035Z"/>
        <path id="Path_287" data-name="Path 287" class="cls-7" d="M85.107,146.435v13.21a3.524,3.524,0,0,1-1.74-.41l-8.7-5.03-.3-.17a1.056,1.056,0,0,1,.01-2l8.99-5.19A3.524,3.524,0,0,1,85.107,146.435Z"/>
        <path id="Path_288" data-name="Path 288" class="cls-9" d="M95.527,154.205l-8.7,5.03a3.834,3.834,0,0,1-3.46,0l-8.7-5.03,8.7-5.01a3.824,3.824,0,0,1,3.47,0Z"/>
      </g>
    </g>
  </g>
</svg>
